<?xml version="1.0" standalone="no"?>
<!DOCTYPE svg PUBLIC "-//W3C//DTD SVG 20010904//EN"
 "http://www.w3.org/TR/2001/REC-SVG-20010904/DTD/svg10.dtd">
<svg version="1.0" xmlns="http://www.w3.org/2000/svg"
 width="1200.000000pt" height="1200.000000pt" viewBox="0 0 1200.000000 1200.000000"
 preserveAspectRatio="xMidYMid meet">
<metadata>
Created by potrace 1.14, written by Peter Selinger 2001-2017
</metadata>
<g transform="translate(0.000000,1200.000000) scale(0.100000,-0.100000)"
fill="#000000" stroke="none">
<path d="M1729 11996 c-2 -2 -34 -6 -70 -10 -36 -3 -90 -11 -120 -17 -30 -5
-65 -13 -79 -15 -14 -3 -47 -12 -75 -20 -27 -9 -61 -18 -74 -20 -71 -14 -368
-151 -412 -190 -8 -8 -19 -14 -22 -14 -9 0 -91 -57 -172 -119 -84 -64 -251
-235 -320 -327 -86 -113 -168 -252 -221 -373 -47 -108 -96 -241 -88 -241 3 0
1 -8 -5 -17 -11 -23 -48 -198 -58 -283 -10 -78 -11 -8585 -1 -8685 14 -148 85
-420 134 -517 8 -15 14 -30 14 -33 -2 -10 112 -220 121 -223 5 -2 9 -8 9 -14
0 -13 50 -85 122 -174 144 -180 329 -340 523 -451 83 -48 241 -123 259 -123 6
0 16 -4 21 -9 9 -7 90 -36 135 -47 112 -28 185 -44 226 -50 27 -3 58 -9 69
-12 32 -10 8612 -11 8690 -1 205 26 411 85 588 168 106 50 240 127 245 142 2
5 8 9 13 9 19 0 165 118 254 206 162 159 278 320 375 519 79 162 136 340 166
521 18 105 19 261 19 4409 0 2365 -4 4329 -8 4364 -4 34 -12 86 -18 115 -6 28
-13 62 -15 76 -35 174 -146 439 -252 600 -114 175 -285 360 -437 475 -167 127
-456 273 -610 310 -11 3 -49 12 -85 21 -36 9 -114 24 -175 34 -105 18 -296 19
-4386 19 -2352 1 -4278 -1 -4280 -3z"/>
</g>
</svg>
