<svg viewBox="0 0 512 512" xmlns="http://www.w3.org/2000/svg"><path d="m471.95 253.05c0 120.9-98.01 218.9-218.9 218.9-120.9 0-218.9-98.01-218.9-218.9 0-120.9 98.01-218.9 218.9-218.9 120.9 0 218.9 98.01 218.9 218.9" fill="#ef6a47" fill-rule="evenodd"/><path d="m198.56 120.59c-6.178 0-11.589.716-16.25 2.125-4.553 1.409-8.738 2.937-12.531 4.563.217 2.385.71 4.693 1.469 6.969.867 2.276 1.727 4.52 2.594 6.688.175-.079.356-.141.531-.219.157.399.311.824.469 1.219.174-.079.357-.141.531-.219.157.399.311.824.469 1.219.174-.079.357-.141.531-.219.157.399.311.824.469 1.219.166-.075.334-.145.5-.219.154.39.314.802.469 1.188.173-.078.357-.141.531-.219.157.399.311.824.469 1.219.173-.078.357-.141.531-.219.157.399.311.824.469 1.219.175-.079.356-.141.531-.219.157.399.311.824.469 1.219.174-.079.357-.141.531-.219.157.399.311.824.469 1.219.174-.079.357-.141.531-.219.157.399.311.824.469 1.219.166-.075.334-.145.5-.219.154.39.314.802.469 1.188.173-.078.357-.141.531-.219.157.399.311.824.469 1.219.173-.078.357-.141.531-.219.157.399.311.824.469 1.219.175-.079.356-.141.531-.219.157.399.311.824.469 1.219.174-.079.357-.141.531-.219.157.399.311.824.469 1.219.174-.079.357-.141.531-.219.157.399.311.824.469 1.219.166-.075.334-.145.5-.219.154.39.314.802.469 1.188.173-.078.357-.141.531-.219.157.399.311.824.469 1.219.173-.078.357-.141.531-.219.157.399.311.824.469 1.219.175-.079.356-.141.531-.219.157.399.311.824.469 1.219.175-.079.356-.141.531-.219.157.399.311.824.469 1.219.174-.079.357-.141.531-.219.157.399.311.824.469 1.219.166-.075.334-.145.5-.219.155.392.314.8.469 1.188.173-.078.357-.141.531-.219.157.399.311.824.469 1.219.173-.078.357-.141.531-.219.157.399.311.824.469 1.219.175-.079.356-.141.531-.219.157.399.311.824.469 1.219.175-.079.356-.141.531-.219.157.399.311.824.469 1.219.174-.079.357-.141.531-.219.157.399.311.824.469 1.219.174-.079.357-.141.531-.219.157.399.311.824.469 1.219.166-.075.334-.145.5-.219.154.39.314.802.469 1.188.173-.078.357-.141.531-.219.157.399.311.824.469 1.219.173-.078.357-.141.531-.219.157.399.311.824.469 1.219.175-.079.356-.141.531-.219.157.399.311.824.469 1.219.174-.079.357-.141.531-.219.157.399.311.824.469 1.219.174-.079.357-.141.531-.219.157.399.311.824.469 1.219.166-.075.334-.145.5-.219.146.369.292.76.438 1.125-.664.869-1.365 1.738-2.094 2.625-2.385 2.927-4.994 6.077-7.813 9.438l-31.875 37.25.969 2.094h.531l.469 1h.531l.469 1h.531l.469 1h.531l.438.969h.531l.469 1h.531l.469 1h.531c.231.5.469 1 .469 1h.531c.231.5.469 1 .469 1h.531c.231.5.469 1 .469 1h.531c.222.479.438.969.438.969h.531c.231.5.469 1 .469 1h.531c.231.5.469 1 .469 1h.531c.231.5.469 1 .469 1h.531c.231.5.469 1 .469 1h.531c.231.5.469 1 .469 1h.531c.222.479.438.969.438.969h.531c.231.5.469 1 .469 1h.531c.231.5.469 1 .469 1h.531c.231.5.469 1 .469 1h.531c.231.5.469 1 .469 1h.531c.231.5.469 1 .469 1h.531c.222.479.438.969.438.969h.531c.231.5.469 1 .469 1h.531c.231.5.469 1 .469 1h.531c.231.5.469 1 .469 1h.531c.231.5.469 1 .469 1h.531c.231.5.469 1 .469 1h.531c.231.5.469 1 .469 1h.531c.222.479.438.969.438.969h.531c.231.5.469 1 .469 1h.531c.231.5.469 1 .469 1h.531c.231.5.469 1 .469 1h.531c.231.5.469 1 .469 1h.531c.231.5.469 1 .469 1h.531c.221.479.438.969.438.969h.531c.231.499.469 1 .469 1h.531c.231.499.469 1 .469 1h.531c.231.499.469 1 .469 1h.531c.231.499.469 1 .469 1h.531c.231.499.469 1 .469 1h.531c.221.478.438.969.438.969h.531c.231.499.469 1 .469 1h.531c.231.499.469 1 .469 1h.531c.231.499.469 1 .469 1h.531c.231.499.469 1 .469 1h.531c.231.499.469 1 .469 1h.531c.196.423.353.729.406.844-.481-.078-.961-.142-1.438-.188l-47.625 93.31 1.313 1.781h.25l.75 1h.25l.719.969.031.031h.25l.719.969.031.031h.281l.688.938v.031h.25l.719.969.031.031h.281l.688.938.031.063h.25l.688.938.063.063h.281l.656.906c.001.001.063.094.063.094h.281l.656.906c.001.001.063.094.063.094h.25l.656.906.063.063h.281l.656.906c.001.002.063.094.063.094h.281l.656.906c.001.002.063.094.063.094h.25l.656.875c.001.002.094.125.094.125h.25l.656.875c.001.002.094.125.094.125h.25l.625.844c.002.002.125.156.125.156h.25l.625.844c.002.002.094.125.094.125h.281l.625.844c.002.002.094.156.094.156h.25l.625.844c.002.002.125.156.125.156h.25l.625.844c.002.003.125.156.125.156h.281l.594.813.125.188h.25l.594.813c.002.003.156.188.156.188h.25l.594.781.125.188h.281l.594.813.125.188h.281l.563.781c.002.003.156.219.156.219h.281l.563.781c.003.003.156.219.156.219h.25l.563.75.188.25h.25l.563.75.188.25h.25l.563.75.188.25h.25l.531.719.188.25h.25l.563.75.188.25h.281l.531.719c.003.004.188.281.188.281h.25l.531.719c.003.004.219.281.219.281h.281l.5.688c.003.005.219.313.219.313h.25l.5.688c.003.005.25.313.25.313h.25l.5.688c.004.005.219.281.219.281h.281l.5.688c.004.005.219.313.219.313h.25l.5.688.25.313h.25l.5.656c.004.005.25.344.25.344h.25l.5.656c.004.005.25.344.25.344h.25l.469.625c.004.005.281.375.281.375h.25l.469.625c.004.006.25.344.25.344h.281l.469.625.25.375h.25l.469.625c.004.006.281.375.281.375h.25l.469.625c.004.006.281.375.281.375h.25l.438.594c.005.006.313.406.313.406h.25l.438.594c.005.006.313.406.313.406h.281l.406.563c.005.006.313.438.313.438h.25l.406.563c.005.007.313.406.313.406h.281l.406.563.313.438h.281l.406.563.313.438h.25l.406.531c.005.007.344.469.344.469h.25l.406.531c.005.007.344.469.344.469h.25l.375.531c.005.007.375.469.375.469h.25l.375.5c.005.007.344.469.344.469h.25l.406.531c.006.007.344.469.344.469h.25l.375.5.375.5h.25l.375.5.375.5h.281l.344.469c.006.008.375.531.375.531h.25l.344.469c.006.008.406.531.406.531h.25l.344.438c.006.008.375.531.375.531h.281l.344.469c.006.008.375.531.375.531h.25l.344.469c.006.008.406.531.406.531h.281l.313.438c.006.009.406.563.406.563h.25l.313.438c.006.009.438.563.438.563h.25l.313.406c.007.009.438.594.438.594h.25l.313.406c.007.009.406.563.406.563h.25l.313.406c.007.009.438.594.438.594h.25l.313.406c.007.009.438.594.438.594h.281l.281.375c.007.009.438.625.438.625h.25l.281.375c.007.01.469.625.469.625h.25l.281.375c.007.01.469.625.469.625h.25l.25.344c.007.01.5.656.5.656h.25l.25.344c.007.01.469.625.469.625h.281l.25.344c.007.01.469.656.469.656h.25l.25.344c.008.01.5.656.5.656h.281l.219.313c.008.01.5.688.5.688h.281l.219.313c.008.01.5.688.5.688h.25l.219.281c.008.011.531.719.531.719h.25l.219.281c.008.011.5.688.5.688h.281l.219.313c.008.011.5.688.5.688h.25l.219.281c.008.011.531.719.531.719h.25l.219.281c.008.011.531.719.531.719h.25l.188.25c.008.011.563.75.563.75h.25l.188.25c.008.011.563.75.563.75h.281l.156.219c.009.012.531.75.531.75h.25l.188.25c.009.012.563.75.563.75h.281l.156.219c.009.012.563.781.563.781h.281l.156.219c.009.012.563.781.563.781h.25l.156.219c.009.012.594.781.594.781h.281l.125.188.594.813h.281c.041.055.125.187.125.188.009.012.594.813.594.813h.25l.125.156c.009.012.594.813.594.813h.281l.125.188c.009.013.594.813.594.813h.25l.125.156c.009.013.625.844.625.844h.25l.125.156c.01.013.625.844.625.844h.281l.094.125c.01.013.625.875.625.875h.25l.094.125c.01.013.656.875.656.875h.25l.094.125c.01.013.625.844.625.844h.281l.094.125.625.875h.25l.094.125c.01.014.656.875.656.875h.281l.063.094c.01.014.656.906.656.906h.25l.063.094c.01.014.688.906.688.906h.281l.031.063c.01.014.688.938.688.938h.281l.031.063c.001.002.071.094.094.125 68.61-5.161 128.39-41.941 164.81-95.81-.358-.408-.743-.791-1.156-1.156-.325-.359-.661-.707-1.031-1.031-.292-.321-.609-.645-.938-.938-.311-.349-.646-.684-1-1-.019-.022-.043-.041-.063-.063.025-.045.069-.08.094-.125.085.08.162.174.25.25.063.062.124.126.188.188.029.033.064.062.094.094.006.005.026-.005.031 0 .165.173.331.331.5.5.059.054.096.135.156.188.068.067.15.121.219.188.025.028.037.066.063.094.027.026.067.037.094.063.106.111.205.235.313.344.029.032.064.062.094.094.072.072.146.147.219.219.241.259.501.501.75.75.045.041.079.085.125.125.105.104.206.211.313.313.163.172.333.332.5.5.055.051.1.107.156.156.042.042.084.083.125.125 20.253-29.998 33.26-65.27 36.531-103.34-.237-.259-.482-.516-.75-.75-.319-.363-.672-.684-1.031-1-.319-.362-.642-.715-1-1.031-.314-.357-.649-.688-1-1-.318-.362-.643-.714-1-1.031-.318-.362-.675-.682-1.031-1-.005-.006.005-.026 0-.031-.039-.035-.086-.06-.125-.094-.278-.307-.569-.6-.875-.875-.015-.017-.017-.046-.031-.063-.05-.044-.105-.081-.156-.125-.265-.288-.523-.584-.813-.844-.337-.384-.684-.726-1.063-1.063-.305-.342-.631-.664-.969-.969-.317-.361-.648-.68-1-1-.313-.356-.654-.684-1-1-.317-.361-.649-.71-1-1.031-.377-.428-.795-.815-1.219-1.188-.264-.289-.527-.581-.813-.844-.025-.029-.037-.065-.063-.094-.028-.025-.066-.038-.094-.063-.268-.295-.553-.575-.844-.844-.029-.033-.065-.061-.094-.094-.032-.029-.062-.065-.094-.094-.263-.289-.559-.549-.844-.813-.03-.034-.064-.06-.094-.094-.033-.03-.061-.064-.094-.094-.267-.292-.524-.577-.813-.844-.03-.034-.064-.06-.094-.094-.032-.029-.061-.065-.094-.094-.261-.286-.53-.55-.813-.813-.019-.022-.043-.041-.063-.063-.055-.05-.101-.107-.156-.156-.249-.271-.514-.531-.781-.781-.053-.06-.102-.128-.156-.188-.027-.025-.066-.038-.094-.063-.246-.267-.517-.535-.781-.781-.025-.029-.037-.065-.063-.094-.059-.054-.128-.103-.188-.156-.337-.365-.661-.735-1.031-1.063-.23-.248-.474-.489-.719-.719-.045-.051-.079-.106-.125-.156-.049-.045-.106-.081-.156-.125-.23-.248-.474-.488-.719-.719-.048-.055-.108-.102-.156-.156-.053-.048-.103-.109-.156-.156-.225-.242-.479-.462-.719-.688-.319-.363-.652-.703-1-1.031-.069-.078-.149-.142-.219-.219-.033-.03-.06-.064-.094-.094-.223-.239-.452-.464-.688-.688-.039-.044-.086-.081-.125-.125-.076-.07-.142-.15-.219-.219-.221-.236-.454-.466-.688-.688-.054-.062-.101-.127-.156-.188-.059-.054-.127-.103-.188-.156-.274-.293-.55-.574-.844-.844-.384-.422-.764-.842-1.188-1.219-.201-.214-.414-.424-.625-.625-.065-.073-.122-.147-.188-.219-.07-.065-.147-.124-.219-.188-.329-.348-.675-.715-1.031-1.031-.193-.204-.391-.4-.594-.594-.456-.519-.926-.983-1.438-1.438-.183-.194-.371-.379-.563-.563-.393-.447-.817-.881-1.25-1.281-.325-.355-.681-.675-1.031-1-.246-.268-.489-.53-.75-.781-.078-.089-.17-.163-.25-.25-.085-.079-.163-.173-.25-.25-.163-.171-.331-.336-.5-.5-.485-.551-1.019-1.08-1.563-1.563-.153-.16-.31-.315-.469-.469-.41-.466-.83-.894-1.281-1.313-.356-.387-.74-.741-1.125-1.094-.297-.318-.59-.643-.906-.938-.325-.353-.682-.675-1.031-1-.226-.245-.45-.487-.688-.719-.098-.111-.213-.204-.313-.313-.106-.099-.204-.216-.313-.313-.245-.254-.492-.511-.75-.75-.42-.453-.854-.905-1.313-1.313-.113-.116-.228-.23-.344-.344-.311-.354-.667-.672-1-1-.537-.611-1.117-1.184-1.719-1.719-.103-.107-.207-.208-.313-.313-.434-.494-.899-.961-1.375-1.406-.444-.479-.89-.944-1.375-1.375-.339-.348-.67-.71-1.031-1.031-.082-.084-.167-.167-.25-.25-.565-.643-1.179-1.249-1.813-1.813-.215-.219-.401-.447-.625-.656-.451-.484-.915-.938-1.406-1.375-.062-.064-.125-.125-.188-.188-.317-.36-.663-.695-1-1.031-.589-.67-1.215-1.288-1.875-1.875-.34-.345-.671-.711-1.031-1.031-.041-.042-.083-.083-.125-.125-.604-.686-1.261-1.336-1.938-1.938-.031-.032-.062-.062-.094-.094-.47-.534-.956-1.017-1.469-1.5-.323-.346-.658-.676-1-1-.33-.354-.681-.7-1.031-1.031-.33-.354-.65-.7-1-1.031-.49-.525-.998-1.025-1.531-1.5-.005-.006.005-.026 0-.031-.109-.11-.233-.205-.344-.313-.54-.59-1.094-1.19-1.688-1.719-.111-.111-.231-.203-.344-.313-.387-.423-.773-.827-1.188-1.219-.323-.345-.659-.676-1-1-.33-.353-.682-.7-1.031-1.031-.325-.347-.657-.674-1-1-.5-.535-.989-1.077-1.531-1.563-.166-.167-.33-.338-.5-.5-.363-.387-.74-.764-1.125-1.125-.297-.313-.595-.61-.906-.906-.335-.357-.678-.695-1.031-1.031-.292-.311-.6-.612-.906-.906-.404-.436-.819-.846-1.25-1.25-.281-.295-.55-.594-.844-.875-.505-.538-1.017-1.072-1.563-1.563-.155-.156-.31-.317-.469-.469-.342-.365-.702-.719-1.063-1.063-.327-.348-.656-.672-1-1-.366-.389-.739-.761-1.125-1.125-.26-.273-.511-.551-.781-.813-.413-.445-.841-.867-1.281-1.281-.271-.284-.562-.542-.844-.813-.378-.403-.757-.81-1.156-1.188-.337-.354-.677-.697-1.031-1.031-.294-.308-.6-.613-.906-.906-.283-.299-.581-.589-.875-.875-.439-.471-.876-.937-1.344-1.375-.22-.229-.46-.436-.688-.656-.464-.498-.942-.976-1.438-1.438-.074-.084-.144-.167-.219-.25-.062-.062-.125-.126-.188-.188-.46-.502-.946-.972-1.438-1.438-.337-.353-.678-.697-1.031-1.031-.294-.307-.6-.613-.906-.906-.313-.331-.642-.654-.969-.969-.398-.422-.799-.822-1.219-1.219-.231-.241-.449-.486-.688-.719-.383-.41-.784-.801-1.188-1.188-.328-.346-.688-.671-1.031-1-.362-.382-.713-.764-1.094-1.125-.249-.261-.492-.53-.75-.781-.433-.464-.885-.91-1.344-1.344-.259-.269-.545-.523-.813-.781-.402-.426-.795-.849-1.219-1.25-.221-.229-.46-.434-.688-.656-.408-.437-.82-.871-1.25-1.281-.31-.325-.646-.627-.969-.938-.362-.381-.714-.764-1.094-1.125-.244-.255-.498-.504-.75-.75-.458-.49-.921-.98-1.406-1.438-.235-.242-.477-.484-.719-.719-.356-.376-.722-.736-1.094-1.094-.326-.343-.66-.673-1-1-.335-.352-.683-.696-1.031-1.031-.29-.306-.574-.613-.875-.906-.452-.48-.929-.925-1.406-1.375-.19-.195-.369-.404-.563-.594-.468-.5-.973-.97-1.469-1.438-.189-.195-.369-.404-.563-.594-.396-.423-.803-.818-1.219-1.219-.357-.375-.721-.737-1.094-1.094-.307-.32-.62-.631-.938-.938-.285-.3-.58-.587-.875-.875-.441-.468-.879-.934-1.344-1.375-.241-.249-.502-.478-.75-.719-.381-.402-.758-.805-1.156-1.188-.31-.323-.616-.659-.938-.969-2.648-2.775-5.721-5.07-9.188-6.875-5.095-2.71-11.05-4.062-17.875-4.063-6.829 0-12.86 1.353-18.06 4.063-5.094 2.71-9.375 6.529-12.844 11.406-3.36 4.769-5.891 10.451-7.625 17.06-1.045 3.983-1.797 8.203-2.219 12.656-.048-.046-.108-.08-.156-.125-.199-.209-.418-.423-.625-.625-.034-.038-.059-.087-.094-.125-.123-.119-.249-.228-.375-.344-.173-.179-.353-.358-.531-.531-.32-.35-.659-.669-1-1-.025-.027-.037-.066-.063-.094-.09-.086-.19-.165-.281-.25-.215-.226-.432-.439-.656-.656-.025-.027-.037-.066-.063-.094-.09-.086-.19-.165-.281-.25-.215-.226-.432-.439-.656-.656-.025-.027-.037-.066-.063-.094-.09-.086-.19-.165-.281-.25-.204-.215-.412-.418-.625-.625-.034-.037-.06-.088-.094-.125-.09-.086-.19-.165-.281-.25-.199-.209-.418-.423-.625-.625-.034-.038-.059-.087-.094-.125-.123-.119-.249-.228-.375-.344-.173-.179-.353-.358-.531-.531-.32-.35-.659-.669-1-1-.025-.027-.037-.066-.063-.094-.09-.086-.19-.165-.281-.25-.215-.226-.432-.439-.656-.656-.025-.027-.037-.066-.063-.094-.09-.086-.19-.165-.281-.25-.215-.226-.432-.439-.656-.656-.025-.027-.037-.066-.063-.094-.069-.066-.149-.122-.219-.188-.39-.413-.797-.801-1.219-1.188-.158-.163-.306-.342-.469-.5-.034-.038-.059-.087-.094-.125-.09-.086-.19-.165-.281-.25-.202-.212-.415-.421-.625-.625-.315-.345-.664-.673-1-1-.32-.35-.659-.669-1-1-.025-.027-.037-.066-.063-.094-.09-.086-.19-.165-.281-.25-.215-.226-.432-.439-.656-.656-.025-.027-.037-.066-.063-.094-.069-.066-.149-.122-.219-.188-.39-.413-.797-.801-1.219-1.188-.158-.163-.306-.342-.469-.5-.034-.038-.059-.087-.094-.125-.09-.086-.19-.165-.281-.25-.202-.212-.415-.421-.625-.625-.315-.345-.664-.673-1-1-.32-.35-.659-.669-1-1-.025-.027-.037-.066-.063-.094-.09-.086-.19-.165-.281-.25-.215-.226-.432-.439-.656-.656-.025-.027-.037-.066-.063-.094-.069-.066-.149-.122-.219-.188-.39-.413-.797-.801-1.219-1.188-.158-.163-.306-.342-.469-.5-.034-.037-.06-.088-.094-.125-.09-.086-.19-.165-.281-.25-.199-.209-.418-.423-.625-.625-.034-.038-.059-.087-.094-.125-.123-.119-.249-.228-.375-.344-.173-.179-.353-.358-.531-.531-.32-.35-.659-.669-1-1-.025-.027-.037-.066-.063-.094-.09-.086-.19-.165-.281-.25-.215-.226-.432-.439-.656-.656-.025-.027-.037-.066-.063-.094-.09-.086-.19-.165-.281-.25-.215-.226-.432-.439-.656-.656-.025-.027-.037-.066-.063-.094-.09-.086-.19-.165-.281-.25-.204-.215-.412-.418-.625-.625-.034-.037-.06-.088-.094-.125-.09-.086-.19-.165-.281-.25-.199-.209-.418-.423-.625-.625-.034-.038-.059-.087-.094-.125-.09-.086-.19-.165-.281-.25-.202-.212-.415-.421-.625-.625-.32-.35-.659-.669-1-1-.025-.027-.037-.066-.063-.094-.09-.086-.19-.165-.281-.25-.215-.226-.432-.439-.656-.656-.025-.027-.037-.066-.063-.094-.069-.066-.149-.122-.219-.188-.962-1.019-2.01-1.959-3.156-2.813-3.252-2.493-7.135-4.339-11.688-5.531-4.553-1.301-9.597-1.969-15.12-1.969" fill-opacity=".235"/><g fill-rule="evenodd"><path d="m256 1c-140.83 0-255 114.17-255 255s114.17 255 255 255 255-114.17 255-255-114.17-255-255-255m8.827 44.931c120.9 0 218.9 98 218.9 218.9s-98 218.9-218.9 218.9-218.93-98-218.93-218.9 98.03-218.9 218.93-218.9" fill-opacity=".067"/><g fill-opacity=".129"><path d="m256 4.433c-138.94 0-251.57 112.63-251.57 251.57s112.63 251.57 251.57 251.57 251.57-112.63 251.57-251.57-112.63-251.57-251.57-251.57m5.885 38.556c120.9 0 218.9 98 218.9 218.9s-98 218.9-218.9 218.9-218.93-98-218.93-218.9 98.03-218.9 218.93-218.9"/><path d="m256 8.356c-136.77 0-247.64 110.87-247.64 247.64s110.87 247.64 247.64 247.64 247.64-110.87 247.64-247.64-110.87-247.64-247.64-247.64m2.942 31.691c120.9 0 218.9 98 218.9 218.9s-98 218.9-218.9 218.9-218.93-98-218.93-218.9 98.03-218.9 218.93-218.9"/></g><path d="m253.04 7.859c-135.42 0-245.19 109.78-245.19 245.19 0 135.42 109.78 245.19 245.19 245.19 135.42 0 245.19-109.78 245.19-245.19 0-135.42-109.78-245.19-245.19-245.19zm0 26.297c120.9 0 218.9 98 218.9 218.9s-98 218.9-218.9 218.9-218.93-98-218.93-218.9 98.03-218.9 218.93-218.9z" fill="#fff" stroke="#000" stroke-opacity=".31" stroke-width="4.904"/></g><text x="729.64001" y="231.36"><tspan x="729.64001" y="231.36"/></text><text transform="scale(4.0128 .2492)" x="378.91" y="579.25"/><text x="1310.91" y="151.36"><tspan x="1310.91" y="151.36"/></text><text transform="scale(4.0128 .2492)" x="523.76001" y="258.22"/><text x="239.33" y="-29.900999"><tspan x="239.33" y="-29.900999"/></text><text transform="scale(4.0128 .2492)" x="256.72" y="-469.14001"/><text x="1337.38" y="-246.37"><tspan x="1337.38" y="-246.37"/></text><text transform="scale(4.0128 .2492)" x="530.35999" y="-1337.8101"/><text x="1918.65" y="-326.38"><tspan x="1918.65" y="-326.38"/></text><text transform="scale(4.0128 .2492)" x="675.21002" y="-1658.85"/><text x="1529.53" y="-798.78003"><tspan x="1529.53" y="-798.78003"/></text><text transform="scale(4.0128 .2492)" x="578.23999" y="-3554.51"/><text x="2110.79" y="-878.78003"><tspan x="2110.79" y="-878.78003"/></text><text transform="scale(4.0128 .2492)" x="723.09003" y="-3875.54"/><g letter-spacing="0" word-spacing="0"><text x="277.98999" y="535.94"><tspan x="277.98999" y="535.94"/></text><g fill="#fff" font-family="Aller" font-size="140.17" transform="matrix(1.1599 0 0 1.1599 -40.943 -24.336)"><text x="171.14999" y="216.77"><tspan x="171.14999" y="216.77">20</tspan></text><text x="173.33" y="349.72"><tspan x="173.33" y="349.72">48</tspan></text></g></g></svg>