<?xml version="1.0" encoding="UTF-8"?>
<svg version="1.1" xmlns="http://www.w3.org/2000/svg" width="2048" height="2048">
<path d="M0 0 C1.02353898 -0.00165078 2.04707796 -0.00330156 3.10163328 -0.00500236 C6.53017809 -0.00931503 9.95867969 -0.0065299 13.38722557 -0.00377727 C15.88124014 -0.00542748 18.37525445 -0.00751402 20.86926833 -0.00999737 C26.30822462 -0.01440102 31.74716806 -0.01569809 37.1861257 -0.01426902 C45.32867701 -0.01214535 53.47121892 -0.01576483 61.61376878 -0.0204838 C75.49215234 -0.02835314 89.37053333 -0.03144564 103.24891895 -0.03192973 C117.3143035 -0.03243216 131.37968517 -0.03507953 145.44506878 -0.04033732 C146.33335731 -0.04066746 147.22164585 -0.04099759 148.13685222 -0.04133773 C151.75472576 -0.04268773 155.3725993 -0.0440504 158.99047283 -0.04542983 C201.8231358 -0.06173214 244.65579822 -0.06811855 287.48846377 -0.0728777 C308.81897835 -0.07526111 330.14949261 -0.07896464 351.48000695 -0.0829148 C419.90792096 -0.09557969 488.33583496 -0.10636321 556.76375012 -0.10975526 C560.03426664 -0.1099175 563.30478317 -0.11008306 566.57529969 -0.11024964 C573.13433342 -0.11058344 579.69336715 -0.11091392 586.25240088 -0.1112442 C593.93137733 -0.1116311 601.61035379 -0.11202071 609.28933025 -0.11241527 C611.4871129 -0.11252769 613.68489555 -0.1126391 615.88267819 -0.11274952 C686.45582166 -0.11629835 757.02895494 -0.13137402 827.60209452 -0.15468726 C878.31318545 -0.17143246 929.02427446 -0.18690548 979.73536819 -0.19142222 C980.77862175 -0.19151571 981.82187531 -0.1916092 982.89674262 -0.19170551 C1005.80072511 -0.19372473 1028.70470756 -0.19488064 1051.60869013 -0.1952341 C1059.80466304 -0.19537027 1068.00063594 -0.19557926 1076.19660884 -0.19582735 C1078.23553375 -0.19588891 1080.27445866 -0.19594723 1082.31338357 -0.1960023 C1114.78204704 -0.19692153 1147.25069985 -0.20688276 1179.71935981 -0.22145979 C1212.4323512 -0.2360877 1245.14532954 -0.24111025 1277.85832362 -0.23304025 C1282.38366683 -0.23192494 1286.90901005 -0.23091426 1291.43435329 -0.22996593 C1292.76493097 -0.22968097 1292.76493097 -0.22968097 1294.122389 -0.22939027 C1308.14062309 -0.22666177 1322.15883299 -0.23398202 1336.17706183 -0.24553929 C1349.97778869 -0.25670656 1363.77848151 -0.25708493 1377.57920892 -0.24616911 C1385.65886006 -0.240097 1393.73840814 -0.24210207 1401.81804945 -0.25642108 C1407.83560978 -0.26615544 1413.85304891 -0.26002499 1419.87060947 -0.24801075 C1422.27574095 -0.24559298 1424.68088431 -0.2481027 1427.08600266 -0.25640723 C1447.22249115 -0.32131487 1467.18675697 1.2214292 1486.925219 5.3776505 C1487.93963062 5.58744542 1488.95404224 5.79724034 1489.99919361 6.01339269 C1559.60654536 20.86381823 1627.27834889 59.46856587 1671.425219 116.1276505 C1672.3506783 117.25505884 1673.27926441 118.37990516 1674.21037525 119.5026505 C1708.16580016 160.67602859 1729.66636542 210.88545083 1739.425219 263.1276505 C1739.60757915 264.0912069 1739.7899393 265.0547633 1739.97782552 266.04751837 C1744.75650472 292.67082766 1743.99773821 319.65474032 1743.943173 346.59718717 C1743.92902617 354.00947413 1743.93884954 361.42168941 1743.94899742 368.83397612 C1743.96728487 382.68064068 1743.96685277 396.52724618 1743.95587391 410.37391591 C1743.94483115 424.38695651 1743.94257765 438.39995833 1743.95082325 452.4130013 C1743.95133994 453.30128949 1743.95185663 454.18957768 1743.95238898 455.10478369 C1743.95452229 458.72322097 1743.95671716 462.3416582 1743.95899008 465.96009538 C1743.9800984 499.5880065 1743.98160395 533.21589164 1743.97040027 566.84380651 C1743.97006909 567.83834054 1743.96973791 568.83287458 1743.96939669 569.85754601 C1743.96906497 570.85368953 1743.96873326 571.84983305 1743.96839149 572.87616274 C1743.95828491 603.26660523 1743.95569961 633.657037 1743.96048206 664.04748082 C1743.96079198 666.08529547 1743.96110061 668.12311012 1743.96140794 670.16092477 C1743.96264989 678.35076863 1743.96392456 686.54061249 1743.965247 694.73045634 C1743.9689144 717.62217741 1743.97119726 740.51389853 1743.97239155 763.40561986 C1743.97244613 764.4479153 1743.97250071 765.49021075 1743.97255695 766.5640909 C1743.97419322 799.75893935 1743.96969086 832.95378406 1743.96099323 866.14863133 C1743.96057174 867.7627765 1743.96057174 867.7627765 1743.96014173 869.40953066 C1743.95556234 886.88287282 1743.9506843 904.3562149 1743.94578103 921.82955697 C1743.9263568 991.12391881 1743.92725839 1060.41824973 1743.94670337 1129.71261144 C1743.95158843 1147.17729748 1743.95643276 1164.64198353 1743.96099323 1182.10666966 C1743.96141592 1183.71987946 1743.96141592 1183.71987946 1743.96184715 1185.36567934 C1743.97047634 1218.52701377 1743.97412814 1251.68834562 1743.97239155 1284.84968114 C1743.97231004 1286.4119654 1743.97231004 1286.4119654 1743.97222689 1288.00581097 C1743.97097678 1310.87241763 1743.96844186 1333.73902401 1743.96474953 1356.6056304 C1743.96343306 1364.78800048 1743.96218072 1372.97037058 1743.96094669 1381.15274067 C1743.96063713 1383.18816205 1743.96032221 1385.22358344 1743.9600019 1387.25900482 C1743.95523426 1417.63859274 1743.95928021 1448.01816857 1743.96939669 1478.39775499 C1743.96989347 1479.88955604 1743.96989347 1479.88955604 1743.97040027 1481.41149449 C1743.970731 1482.40418085 1743.97106173 1483.39686721 1743.97140248 1484.41963498 C1743.98245273 1517.95373919 1743.97834174 1551.48781232 1743.9572773 1585.0219121 C1743.95506805 1588.62870793 1743.95292121 1592.2355038 1743.95082325 1595.8422997 C1743.95030242 1596.72742391 1743.94978159 1597.61254813 1743.94924498 1598.52449428 C1743.9413798 1612.49494315 1743.94682227 1626.46535312 1743.95789927 1640.43579847 C1743.9685249 1654.19904242 1743.96468563 1667.96222127 1743.94584292 1681.72545704 C1743.93616073 1689.07644092 1743.93258074 1696.42729074 1743.94746685 1703.77826965 C1744.11418999 1791.14117145 1724.80236581 1872.15164264 1665.425219 1939.1276505 C1664.579594 1940.08413487 1663.733969 1941.04061925 1662.862719 1942.026088 C1651.86124103 1954.23903824 1640.40576585 1966.01364108 1627.425219 1976.1276505 C1626.29781066 1977.0531098 1625.17296434 1977.98169591 1624.050219 1978.91280675 C1582.87684091 2012.86823166 1532.66741867 2034.36879692 1480.425219 2044.1276505 C1479.4616626 2044.31001065 1478.4981062 2044.4923708 1477.50535113 2044.68025702 C1450.88204184 2049.45893622 1423.89812918 2048.70016971 1396.95568233 2048.6456045 C1389.54339537 2048.63145767 1382.13118009 2048.64128104 1374.71889338 2048.65142892 C1360.87222882 2048.66971637 1347.02562332 2048.66928427 1333.17895359 2048.65830541 C1319.16591299 2048.64726265 1305.15291117 2048.64500915 1291.1398682 2048.65325475 C1290.25158001 2048.65377144 1289.36329182 2048.65428813 1288.44808581 2048.65482048 C1284.82964853 2048.65695379 1281.2112113 2048.65914866 1277.59277411 2048.66142158 C1243.964863 2048.6825299 1210.33697786 2048.68403545 1176.70906299 2048.67283177 C1175.21726194 2048.672335 1175.21726194 2048.672335 1173.69532349 2048.67182819 C1172.20110821 2048.67133062 1172.20110821 2048.67133062 1170.67670676 2048.67082299 C1140.28626427 2048.66071641 1109.8958325 2048.65813111 1079.50538868 2048.66291356 C1077.46757403 2048.66322348 1075.42975938 2048.66353211 1073.39194473 2048.66383944 C1065.20210087 2048.66508139 1057.01225701 2048.66635606 1048.82241316 2048.6676785 C1025.93069208 2048.6713459 1003.03897097 2048.67362876 980.14724964 2048.67482305 C978.58380647 2048.67490492 978.58380647 2048.67490492 976.9887786 2048.67498845 C943.79393015 2048.67662472 910.59908544 2048.67212236 877.40423816 2048.66342473 C876.32814139 2048.66314373 875.25204461 2048.66286274 874.14333884 2048.66257323 C856.66999668 2048.65799384 839.1966546 2048.6531158 821.72331253 2048.64821253 C752.42895069 2048.6287883 683.13461977 2048.62968989 613.84025806 2048.64913487 C596.37557202 2048.65401993 578.91088597 2048.65886426 561.44619983 2048.66342473 C559.83299004 2048.66384742 559.83299004 2048.66384742 558.18719016 2048.66427865 C525.02585573 2048.67290784 491.86452387 2048.67655964 458.70318836 2048.67482305 C457.66166552 2048.67476871 456.62014267 2048.67471437 455.54705853 2048.67465839 C432.68045187 2048.67340828 409.81384549 2048.67087336 386.9472391 2048.66718103 C378.76486901 2048.66586456 370.58249892 2048.66461222 362.40012883 2048.66337819 C360.36470744 2048.66306863 358.32928606 2048.66275371 356.29386468 2048.6624334 C325.91427676 2048.65766576 295.53470093 2048.66171171 265.15511451 2048.67182819 C264.16058048 2048.67215937 263.16604644 2048.67249056 262.14137501 2048.67283177 C261.14868864 2048.6731625 260.15600228 2048.67349323 259.13323452 2048.67383398 C225.59913031 2048.68488423 192.06505718 2048.68077324 158.5309574 2048.6597088 C154.92416157 2048.65749955 151.3173657 2048.65535271 147.7105698 2048.65325475 C146.82544559 2048.65273392 145.94032137 2048.65221309 145.02837521 2048.65167648 C131.05792634 2048.6438113 117.08751638 2048.64925377 103.11707103 2048.66033077 C89.35382708 2048.6709564 75.59064823 2048.66711713 61.82741246 2048.64827442 C54.47642858 2048.63859223 47.12557876 2048.63501244 39.77459985 2048.64989835 C-59.15720621 2048.83867415 -144.48454686 2021.67708527 -215.824781 1951.0651505 C-221.83426953 1945.05002191 -227.34615535 1938.8381861 -232.574781 1932.1276505 C-233.5002403 1931.00024216 -234.42882642 1929.87539584 -235.35993725 1928.7526505 C-276.96421509 1878.30449188 -304.85430167 1809.42412368 -304.7024315 1743.5528695 C-304.70408228 1742.52933052 -304.70573306 1741.50579153 -304.70743386 1740.45123622 C-304.71174653 1737.02269141 -304.7089614 1733.59418981 -304.70620877 1730.16564393 C-304.70785898 1727.67162936 -304.70994552 1725.17761505 -304.71242887 1722.68360117 C-304.71683252 1717.24464488 -304.71812959 1711.80570143 -304.71670052 1706.3667438 C-304.71457685 1698.22419249 -304.71819633 1690.08165058 -304.7229153 1681.93910072 C-304.73078464 1668.06071716 -304.73387714 1654.18233617 -304.73436123 1640.30395055 C-304.73486366 1626.238566 -304.73751103 1612.17318433 -304.74276882 1598.10780072 C-304.74309896 1597.21951219 -304.74342909 1596.33122365 -304.74376923 1595.41601728 C-304.74511923 1591.79814374 -304.7464819 1588.1802702 -304.74786133 1584.56239667 C-304.76416364 1541.7297337 -304.77055005 1498.89707128 -304.7753092 1456.06440573 C-304.77769261 1434.73389115 -304.78139614 1413.40337689 -304.7853463 1392.07286255 C-304.79801119 1323.64494854 -304.80879471 1255.21703454 -304.81218676 1186.78911938 C-304.812349 1183.51860285 -304.81251456 1180.24808633 -304.81268114 1176.9775698 C-304.81301494 1170.41853608 -304.81334542 1163.85950235 -304.8136757 1157.30046862 C-304.8140626 1149.62149217 -304.81445221 1141.94251571 -304.81484677 1134.26353925 C-304.81495919 1132.0657566 -304.8150706 1129.86797395 -304.81518102 1127.6701913 C-304.81872985 1057.09704784 -304.83380552 986.52391456 -304.85711876 915.95077498 C-304.87386396 865.23968405 -304.88933698 814.52859504 -304.89385372 763.81750131 C-304.89394721 762.77424775 -304.8940407 761.73099418 -304.89413701 760.65612688 C-304.89615623 737.75214439 -304.89731214 714.84816194 -304.8976656 691.94417937 C-304.89780177 683.74820646 -304.89801076 675.55223356 -304.89825885 667.35626066 C-304.89832041 665.31733575 -304.89837873 663.27841083 -304.8984338 661.23948592 C-304.89935303 628.77082246 -304.90931426 596.30216965 -304.92389129 563.83350969 C-304.9385192 531.1205183 -304.94354175 498.40753996 -304.93547175 465.69454588 C-304.93435644 461.16920267 -304.93334576 456.64385945 -304.93239743 452.11851621 C-304.93220746 451.23146442 -304.93201749 450.34441264 -304.93182177 449.4304805 C-304.92909327 435.41224641 -304.93641352 421.39403651 -304.94797079 407.37580767 C-304.95913806 393.57508081 -304.95951643 379.77438799 -304.94860061 365.97366058 C-304.9425285 357.89400943 -304.94453357 349.81446135 -304.95885258 341.73482005 C-304.96858694 335.71725972 -304.96245649 329.69982059 -304.95044225 323.68226003 C-304.94802448 321.27712855 -304.9505342 318.87198519 -304.95883873 316.46686684 C-305.02374808 296.32984849 -303.47944746 276.36680482 -299.324781 256.6276505 C-299.11643627 255.61686437 -298.90809155 254.60607823 -298.69343334 253.56466222 C-293.40861683 228.73483903 -285.36682292 205.07646789 -274.574781 182.1276505 C-274.20514233 181.33777745 -273.83550366 180.54790441 -273.45466381 179.73409581 C-261.29366294 153.98078237 -245.46026154 130.43002289 -226.574781 109.1276505 C-225.729156 108.17116612 -224.883531 107.21468175 -224.012281 106.229213 C-213.01080303 94.01626275 -201.55532785 82.24165992 -188.574781 72.1276505 C-187.44737266 71.2021912 -186.32252634 70.27360508 -185.199781 69.34249425 C-134.75162238 27.73821641 -65.87125418 -0.15187017 0 0 Z " fill="#EDC53F" transform="translate(304.57478100061417,-0.12765049934387207)"/>
<path d="M0 0 C1.25183578 0.00123871 1.25183578 0.00123871 2.52896118 0.00250244 C14.58262653 0.02992764 26.35768397 0.52311127 38.21533203 2.88037109 C39.82049739 3.19251597 41.43197971 3.47275585 43.04638672 3.73291016 C49.7129292 4.82696111 55.86002421 6.58491148 62.1875 8.9375 C63.14197021 9.29086426 64.09644043 9.64422852 65.07983398 10.00830078 C78.77501951 15.20696139 90.17981065 21.98470025 101.4375 31.3125 C102.59572266 32.25802734 102.59572266 32.25802734 103.77734375 33.22265625 C108.49502012 37.19781926 112.57667062 41.50569051 116.4375 46.3125 C117.24960937 47.31410156 118.06171875 48.31570313 118.8984375 49.34765625 C141.50789273 78.17502071 151.17469003 113.70355989 156.3125 149.375 C156.41604797 150.08309814 156.51959595 150.79119629 156.62628174 151.52075195 C159.54909883 171.83335587 159.62573745 192.17312078 159.62280273 212.66137695 C159.62272177 215.45799264 159.62963433 218.25444346 159.64331055 221.05102539 C159.91676253 277.93488026 153.72515891 340.19024988 115.4375 385.3125 C114.69886719 386.19808594 113.96023438 387.08367187 113.19921875 387.99609375 C91.13121459 413.45917547 58.37086705 426.41007576 25.4375 430.3125 C21.97947994 430.48173605 18.52426358 430.52362515 15.0625 430.55078125 C14.06154297 430.558853 13.06058594 430.56692474 12.02929688 430.57524109 C9.90789493 430.58903687 7.78647121 430.59977905 5.66503906 430.60766602 C3.54192376 430.61906853 1.41883436 430.63932845 -0.70410156 430.66918945 C-40.51661576 431.22751287 -78.49577381 420.79850876 -107.87109375 392.97265625 C-138.97055984 362.44777614 -151.43084633 316.44396289 -155.5625 274.3125 C-155.64450653 273.49888 -155.72651306 272.68526001 -155.81100464 271.84698486 C-157.47545894 254.90497323 -157.8789698 238.03724208 -157.82324219 221.02880859 C-157.81184855 217.51661879 -157.81863693 214.00473226 -157.83012009 210.49255276 C-157.87763909 193.35505901 -157.34776462 176.37192343 -155.5625 159.3125 C-155.48688843 158.58754333 -155.41127686 157.86258667 -155.33337402 157.11566162 C-154.90546748 153.14778981 -154.38997794 149.19866722 -153.8125 145.25 C-153.64476074 144.0964502 -153.47702148 142.94290039 -153.30419922 141.75439453 C-151.51122675 130.06241948 -148.82361331 118.67641782 -145.5625 107.3125 C-145.33336914 106.5066748 -145.10423828 105.70084961 -144.86816406 104.87060547 C-134.43652097 69.02602633 -112.66630537 36.62456342 -79.75 18.0625 C-55.21990164 4.69646128 -27.72807342 -0.11611047 0 0 Z " fill="#FDFBF3" transform="translate(834.5625,809.6875)"/>
<path d="M0 0 C0.77069824 0.13921875 1.54139648 0.2784375 2.33544922 0.421875 C33.61127398 6.11677755 67.29146473 21.33944974 86 48 C96.75925812 64.38297199 100.18583399 80.09058314 100.24023438 99.58178711 C100.24990152 101.66626508 100.28099881 103.74973797 100.3125 105.83398438 C100.48649401 127.72952725 93.85610654 148.56932181 78.75 164.6875 C77.52341057 165.8176161 76.27048705 166.91946926 75 168 C73.77216797 169.06347656 73.77216797 169.06347656 72.51953125 170.1484375 C62.67537793 178.18501181 51.64719297 184.28001298 40.61035156 190.51855469 C38.3596451 191.79589165 36.12854804 193.10135144 33.8984375 194.4140625 C31 196 31 196 29 196 C32.16179562 199.49832337 35.69418374 201.75114352 39.75 204.0625 C69.02512429 221.20682825 99.04058956 243.88852992 109.1875 277.75 C109.81383978 280.16101506 110.41777716 282.57795299 111 285 C111.30035156 286.1653125 111.60070313 287.330625 111.91015625 288.53125 C118.38291047 317.19200359 113.5020967 346.16500835 98 371 C95.19304727 374.85575998 92.18783385 378.45486078 89 382 C88.39800781 382.68449219 87.79601563 383.36898438 87.17578125 384.07421875 C70.12159468 402.31221002 45.57892562 412.3907557 22 419 C21.0615625 419.26554687 20.123125 419.53109375 19.15625 419.8046875 C13.11624348 421.41424968 7.03373798 422.5846339 0.875 423.625 C0.14708252 423.74818604 -0.58083496 423.87137207 -1.33081055 423.99829102 C-10.28613841 425.45151064 -19.16020084 426.15784671 -28.23046875 426.203125 C-29.6478685 426.21371445 -29.6478685 426.21371445 -31.09390259 426.22451782 C-70.35896632 426.45138102 -70.35896632 426.45138102 -87 423 C-87.9801709 422.80664062 -88.9603418 422.61328125 -89.97021484 422.4140625 C-123.73589562 415.59887448 -157.84820119 401.48887055 -177.82836914 372.00390625 C-189.38950535 354.35191299 -194.43563077 335.56527712 -194.375 314.625 C-194.37445618 313.91923828 -194.37391235 313.21347656 -194.37335205 312.48632812 C-194.24980459 277.53722365 -181.01483613 248.45579639 -156.38354492 223.88891602 C-145.59356326 213.4938585 -132.84744769 205.59675168 -120 198 C-121.670625 197.01773438 -121.670625 197.01773438 -123.375 196.015625 C-134.09838078 189.63220975 -144.22610063 182.76170915 -154 175 C-154.804375 174.3666272 -154.804375 174.3666272 -155.625 173.72045898 C-174.1104756 158.8089587 -180.46449835 137.64901159 -183 115 C-184.75490139 87.11869315 -181.45313348 62.85935704 -163 41 C-141.9542415 17.348262 -112.24304053 6.357969 -82 0 C-80.71077637 -0.27118652 -80.71077637 -0.27118652 -79.39550781 -0.54785156 C-54.05655763 -5.563787 -25.2817871 -4.94655248 0 0 Z " fill="#FDFBF3" transform="translate(1621,813)"/>
<path d="M0 0 C27.72 0 55.44 0 84 0 C84 89.76 84 179.52 84 272 C101.49 272 118.98 272 137 272 C137 294.77 137 317.54 137 341 C119.84 341 102.68 341 85 341 C85 363.77 85 386.54 85 410 C58.93 410 32.86 410 6 410 C6 387.23 6 364.46 6 341 C-61.65 341 -129.3 341 -199 341 C-199 264 -199 264 -183 243 C-177.71123401 235.80929135 -177.71123401 235.80929135 -172.4296875 228.61328125 C-168.47314116 223.25625744 -164.36847827 218.0191956 -160.25830078 212.77978516 C-155.36893864 206.52594986 -150.65468592 200.15334545 -145.96435547 193.74951172 C-141.54653864 187.72295912 -137.02715401 181.78923144 -132.45214844 175.88085938 C-123.45089631 164.22221002 -114.57468626 152.47561881 -105.86376953 140.59863281 C-101.47694063 134.62491842 -96.98983549 128.7410366 -92.45214844 122.88085938 C-84.13965785 112.11431138 -75.90809498 101.28924466 -67.875 90.3125 C-62.78818844 83.36167571 -57.56003335 76.53968638 -52.24511719 69.76220703 C-48.10976857 64.471495 -44.09071607 59.10630287 -40.125 53.6875 C-32.5580308 43.34958785 -24.78739969 33.17237014 -17 23 C-14.01891044 19.10563241 -11.04007689 15.2095537 -8.0625 11.3125 C-7.36979004 10.40902832 -6.67708008 9.50555664 -5.96337891 8.57470703 C-5.32706543 7.74181152 -4.69075195 6.90891602 -4.03515625 6.05078125 C-3.19029663 4.94730347 -3.19029663 4.94730347 -2.32836914 3.8215332 C-0.94844722 2.03496024 -0.94844722 2.03496024 0 0 Z " fill="#FDFBF3" transform="translate(1243,820)"/>
<path d="M0 0 C0.92167969 0.83917969 1.84335937 1.67835938 2.79296875 2.54296875 C3.45683594 3.12433594 4.12070312 3.70570313 4.8046875 4.3046875 C22.84283412 20.99733134 34.04492172 47.94823826 35.01171875 72.21484375 C35.42172113 88.77455808 33.71932383 105.67348498 28.79296875 121.54296875 C28.4688501 122.59073486 28.4688501 122.59073486 28.13818359 123.65966797 C14.01669768 168.48489948 -18.48135263 208.491893 -54.0625 238.6796875 C-56.36917936 240.68385154 -58.59988373 242.75622782 -60.83251953 244.84204102 C-66.23962043 249.89310271 -71.7544079 254.69694942 -77.52734375 259.33203125 C-80.3395644 261.65231825 -83.02500388 264.07368009 -85.70703125 266.54296875 C-89.28495588 269.83628574 -92.92242791 272.98948196 -96.70703125 276.04296875 C-101.51824273 279.92762738 -106.09655367 284.01535957 -110.6484375 288.19921875 C-112.85281837 290.21849893 -115.0782476 292.20427606 -117.33203125 294.16796875 C-118.26595703 294.9878125 -118.26595703 294.9878125 -119.21875 295.82421875 C-120.68533893 297.091997 -122.16993755 298.33901211 -123.6640625 299.57421875 C-124.48261719 300.26515625 -125.30117188 300.95609375 -126.14453125 301.66796875 C-127.27181641 302.59996094 -127.27181641 302.59996094 -128.421875 303.55078125 C-130.68673442 305.73870537 -130.68673442 305.73870537 -131.20703125 310.54296875 C-71.47703125 310.54296875 -11.74703125 310.54296875 49.79296875 310.54296875 C49.79296875 335.29296875 49.79296875 360.04296875 49.79296875 385.54296875 C-48.54703125 385.54296875 -146.88703125 385.54296875 -248.20703125 385.54296875 C-248.20703125 363.10296875 -248.20703125 340.66296875 -248.20703125 317.54296875 C-232.93502421 302.27096171 -232.93502421 302.27096171 -227.99609375 298.078125 C-224.62483164 295.18531712 -221.43140093 292.09730331 -218.20703125 289.04296875 C-213.58251026 284.66231898 -208.90572224 280.3718169 -204.09570312 276.1953125 C-201.33435117 273.77948649 -198.64344711 271.29146363 -195.95703125 268.79296875 C-194.82440437 267.74328926 -193.69158778 266.69381444 -192.55859375 265.64453125 C-191.71603027 264.86384277 -191.71603027 264.86384277 -190.85644531 264.06738281 C-188.35732658 261.75765851 -185.84422054 259.46347325 -183.33203125 257.16796875 C-169.11131239 244.2156301 -169.11131239 244.2156301 -155.4296875 230.703125 C-153.5094823 228.83691503 -151.54723616 227.09403497 -149.51953125 225.34765625 C-144.85862491 221.29805173 -140.49790191 216.98099397 -136.14453125 212.60546875 C-135.38076172 211.84556641 -134.61699219 211.08566406 -133.83007812 210.30273438 C-129.68325107 206.14881266 -125.70916998 201.90903766 -121.88012695 197.46118164 C-119.12183329 194.29878366 -116.21774497 191.27609506 -113.33203125 188.23046875 C-107.67645154 182.20394605 -102.31718503 176.04301778 -97.20703125 169.54296875 C-96.11605868 168.18215274 -95.02489766 166.82148781 -93.93359375 165.4609375 C-73.82848993 140.2143363 -53.61937031 111.18978903 -56.20703125 77.54296875 C-56.99964337 73.49873701 -58.27760177 70.17349287 -60.20703125 66.54296875 C-60.70460938 65.599375 -61.2021875 64.65578125 -61.71484375 63.68359375 C-67.70155833 53.38087563 -76.03500238 47.4898753 -87.20703125 43.54296875 C-111.57907481 38.18722065 -136.65408028 46.73468811 -157.20703125 59.54296875 C-167.33779235 66.38711611 -176.0754063 73.86857637 -182.20703125 84.54296875 C-182.69824463 84.17437744 -183.18945801 83.80578613 -183.69555664 83.42602539 C-187.09208582 80.87791946 -190.48943565 78.33094566 -193.890625 75.7890625 C-204.48615245 67.86521883 -215.0025808 59.84103442 -225.49755859 51.78466797 C-227.03326863 50.60591901 -228.5693168 49.42761046 -230.10571289 48.24975586 C-231.54188266 47.14872912 -232.97732196 46.0467486 -234.41186523 44.94360352 C-238.61716659 41.72038162 -242.87951068 38.60033393 -247.20703125 35.54296875 C-246.69962588 31.00087225 -245.0205912 28.67207032 -242.08203125 25.23046875 C-240.85806641 23.78994141 -240.85806641 23.78994141 -239.609375 22.3203125 C-238.81660156 21.40378906 -238.02382813 20.48726562 -237.20703125 19.54296875 C-236.58957031 18.80175781 -235.97210938 18.06054688 -235.3359375 17.296875 C-231.32968627 12.55043878 -227.01120783 8.47218568 -222.20703125 4.54296875 C-221.32917969 3.80433594 -220.45132812 3.06570313 -219.546875 2.3046875 C-160.41415136 -45.53559343 -58.57286038 -52.30046228 0 0 Z " fill="#FDFBF3" transform="translate(568.20703125,844.45703125)"/>
<path d="M0 0 C23.74424015 17.82655801 30.21276759 49.29348484 34.203125 76.96875 C41.47376958 130.32745968 43.01499114 203.16721906 10.8046875 249.1328125 C0.91421794 261.78020738 -11.93471365 270.02273399 -28 272 C-44.63175317 272.88976457 -59.26726221 270.00303153 -72.25 258.75 C-91.72545093 239.99010078 -98.88427199 215.03346756 -103 189 C-103.16935059 187.93096436 -103.33870117 186.86192871 -103.51318359 185.76049805 C-104.79153673 177.29333733 -105.59923369 168.85782523 -106.125 160.3125 C-106.16669312 159.63890442 -106.20838623 158.96530884 -106.25134277 158.27130127 C-107.70475242 134.19473661 -107.97957783 109.96536979 -105 86 C-104.89816406 85.10603516 -104.79632812 84.21207031 -104.69140625 83.29101562 C-101.4357088 54.73332376 -95.43237447 20.18019138 -71.55859375 1.04296875 C-50.74905138 -14.04792075 -21.20702947 -15.36991549 0 0 Z " fill="#EDC53F" transform="translate(871,895)"/>
<path d="M0 0 C1.11604614 0.60062256 1.11604614 0.60062256 2.25463867 1.21337891 C23.70052984 13.01513999 41.40046129 29.15667002 51 52.0625 C51.33902344 52.86042969 51.67804688 53.65835937 52.02734375 54.48046875 C56.0826197 66.23516264 56.05637118 83.03642215 51.31640625 94.53125 C44.03083143 108.54030781 33.31925473 116.35209092 18.47265625 121.21875 C-5.64299122 128.42513345 -35.18563567 128.14544737 -57.74853516 116.12255859 C-70.74356402 108.82692693 -77.55392082 100.42859457 -82 86.0625 C-82.33 85.0725 -82.66 84.0825 -83 83.0625 C-83.41728029 73.96967143 -83.59633506 64.8603668 -81 56.0625 C-80.74347656 55.18464844 -80.48695312 54.30679687 -80.22265625 53.40234375 C-71.91304428 28.04554498 -49.07608111 12.4204845 -26.48046875 0.6875 C-24.96874222 -0.0677197 -23.45446167 -0.81785164 -21.9375 -1.5625 C-20.8841748 -2.09544678 -20.8841748 -2.09544678 -19.80957031 -2.63916016 C-12.15246867 -6.26533683 -7.06040582 -3.82388292 0 0 Z " fill="#EDC53F" transform="translate(1593,1046.9375)"/>
<path d="M0 0 C0.33 0 0.66 0 1 0 C1 52.8 1 105.6 1 160 C-39.26 160 -79.52 160 -121 160 C-119.27155848 155.67889621 -118.21550969 153.79393216 -115.3125 150.4375 C-110.88429929 145.16073909 -106.73682328 139.71374909 -102.625 134.1875 C-97.84963787 127.77969231 -93.02762239 121.42304219 -88.06518555 115.15917969 C-82.79583346 108.50007621 -77.66421945 101.73608916 -72.51513672 94.98388672 C-70.35092264 92.15011237 -68.17591107 89.32480514 -66 86.5 C-62.15615399 81.5079922 -58.32556222 76.50603093 -54.5 71.5 C-48.22400115 63.28793453 -41.92395531 55.09470918 -35.6171875 46.90625 C-33.07630849 43.60555829 -30.53742132 40.30335 -28 37 C-27.51692383 36.3714209 -27.03384766 35.7428418 -26.53613281 35.09521484 C-24.96030798 33.04362181 -23.3860015 30.99087547 -21.8125 28.9375 C-21.27874756 28.24116455 -20.74499512 27.5448291 -20.19506836 26.82739258 C-17.06045659 22.72736279 -13.9543961 18.60752629 -10.87109375 14.46875 C-9.84181763 13.08828491 -9.84181763 13.08828491 -8.79174805 11.67993164 C-7.44526955 9.87137096 -6.10161501 8.06070394 -4.76098633 6.24780273 C-3.85062622 5.02492554 -3.85062622 5.02492554 -2.921875 3.77734375 C-2.11121582 2.68280884 -2.11121582 2.68280884 -1.28417969 1.56616211 C-0.86040039 1.04932861 -0.43662109 0.53249512 0 0 Z " fill="#EDC53F" transform="translate(1248,931)"/>
<path d="M0 0 C2.45907885 0.03681256 4.91664858 0.04101511 7.37597656 0.04052734 C23.89557853 0.11255553 40.67868015 1.25009296 53.19628906 13.41162109 C60.51057796 22.46895879 62.19042755 30.88697864 61.19628906 42.41162109 C56.7080321 62.66942956 41.69038618 78.47191624 24.64550781 89.36865234 C20.21014898 92.13475152 15.73640919 94.82129423 11.19628906 97.41162109 C9.63007812 98.34167969 9.63007812 98.34167969 8.03222656 99.29052734 C3.97522433 100.8943285 1.38370946 100.32081055 -2.59521484 98.66699219 C-4.64039693 97.70617888 -6.62732406 96.67160537 -8.61621094 95.59912109 C-9.34888184 95.20748779 -10.08155273 94.81585449 -10.83642578 94.41235352 C-30.32812611 83.70707808 -49.98833666 69.43442877 -57.43261719 47.56396484 C-59.15971802 37.54678001 -58.83572497 27.81910301 -53.63183594 18.93115234 C-45.29033244 7.43484945 -32.63715817 3.37952009 -19.21188354 0.78634644 C-12.85099686 -0.20344368 -6.42061157 -0.09907557 0 0 Z " fill="#EDC53F" transform="translate(1576.8037109375,880.58837890625)"/>
</svg>
