<svg xmlns="http://www.w3.org/2000/svg" viewBox="0 0 48 48"><defs><style>.a{fill:none;stroke:#115e59;stroke-linejoin:round}</style></defs><rect width="18.5" height="18.5" x="24" y="5.5" class="a" rx="4"/><rect width="18.5" height="18.5" x="5.5" y="24" class="a" rx="4"/><rect width="18.5" height="18.5" x="24" y="24" class="a" rx="4"/><rect width="18.5" height="18.5" x="5.5" y="5.5" class="a" rx="4"/><path fill="none" stroke="#f9f6f2" stroke-linecap="round" stroke-linejoin="round" d="m16.805 38.25-.001-10-5.366 6.717h6.625m11.875-18.529a3.313 3.313 0 0 0 6.625 0v-3.375a3.313 3.313 0 0 0-6.626 0Zm-18.5-3.375a3.313 3.313 0 0 1 6.624 0 3.1 3.1 0 0 1-.97 2.342c-1.34 1.176-5.654 4.345-5.654 4.345h6.625m14.375 13.5a2.5 2.5 0 0 0-2.5 2.5h0a2.5 2.5 0 0 0 2.5 2.5h1.624a2.5 2.5 0 0 0 2.5-2.5h0a2.5 2.5 0 0 0-2.5-2.5m.001 0a2.5 2.5 0 0 0 2.5-2.5h0a2.5 2.5 0 0 0-2.5-2.5h-1.626a2.5 2.5 0 0 0-2.5 2.5h0a2.5 2.5 0 0 0 2.5 2.5m.001 0h1.625"/></svg>