<?xml version="1.0" encoding="UTF-8"?>
<!DOCTYPE svg PUBLIC "-//W3C//DTD SVG 1.1//EN" "http://www.w3.org/Graphics/SVG/1.1/DTD/svg11.dtd">
<svg xmlns="http://www.w3.org/2000/svg" version="1.1" width="1280px" height="1280px" style="shape-rendering:geometricPrecision; text-rendering:geometricPrecision; image-rendering:optimizeQuality; fill-rule:evenodd; clip-rule:evenodd" xmlns:xlink="http://www.w3.org/1999/xlink">
<g><path style="opacity:0.933" fill="#edc53f" d="M 179.5,-0.5 C 486.167,-0.5 792.833,-0.5 1099.5,-0.5C 1177.15,10.2427 1232.32,51.2427 1265,122.5C 1272.06,140.728 1276.89,159.394 1279.5,178.5C 1279.5,485.5 1279.5,792.5 1279.5,1099.5C 1268.76,1177.15 1227.76,1232.32 1156.5,1265C 1137.97,1272.22 1118.97,1277.05 1099.5,1279.5C 792.833,1279.5 486.167,1279.5 179.5,1279.5C 101.844,1268.76 46.6775,1227.76 14,1156.5C 6.94416,1138.27 2.11082,1119.61 -0.5,1100.5C -0.5,793.167 -0.5,485.833 -0.5,178.5C 10.5365,101.259 51.5365,46.4261 122.5,14C 141.03,6.78481 160.03,1.95148 179.5,-0.5 Z"/></g>
<g><path style="opacity:0.996" fill="#fdfbf3" d="M 272.5,505.5 C 300.247,502.689 325.914,508.522 349.5,523C 370.035,539.584 378.868,561.084 376,587.5C 372.707,607.412 365.041,625.412 353,641.5C 344.218,653.184 334.385,664.018 323.5,674C 306.573,688.716 289.739,703.549 273,718.5C 272.517,719.448 272.351,720.448 272.5,721.5C 310.167,721.5 347.833,721.5 385.5,721.5C 385.5,737.167 385.5,752.833 385.5,768.5C 323.5,768.5 261.5,768.5 199.5,768.5C 199.333,754.163 199.5,739.829 200,725.5C 228.272,699.897 255.939,673.563 283,646.5C 292.765,635.404 301.765,623.737 310,611.5C 317.226,600.165 320.559,587.832 320,574.5C 312.942,557.052 300.108,550.218 281.5,554C 264.588,557.447 250.922,565.947 240.5,579.5C 227.244,569.621 214.077,559.621 201,549.5C 200.333,548.5 200.333,547.5 201,546.5C 212.643,531.202 227.477,520.035 245.5,513C 254.461,509.854 263.461,507.354 272.5,505.5 Z"/></g>
<g><path style="opacity:0.996" fill="#fdfbf3" d="M 511.5,505.5 C 566.658,501.635 601.158,526.302 615,579.5C 617.224,589.733 618.891,600.066 620,610.5C 620.873,633.523 620.54,656.523 619,679.5C 609.182,753.641 567.348,784.475 493.5,772C 466.505,765.674 447.339,749.841 436,724.5C 429.145,708.199 425.145,691.199 424,673.5C 422.102,650.495 422.102,627.495 424,604.5C 426.017,579.109 434.35,556.109 449,535.5C 465.808,517.012 486.641,507.012 511.5,505.5 Z"/></g>
<g><path style="opacity:0.996" fill="#fdfbf3" d="M 977.5,505.5 C 1001.78,504.389 1024.78,509.223 1046.5,520C 1068.72,533.617 1078.22,553.45 1075,579.5C 1074.06,593.551 1068.22,605.051 1057.5,614C 1048.67,619.917 1039.67,625.583 1030.5,631C 1043.3,638.152 1055.14,646.652 1066,656.5C 1082.23,674.975 1087.57,696.309 1082,720.5C 1075.36,742.478 1061.19,757.312 1039.5,765C 1013.42,773.582 986.758,775.915 959.5,772C 937.572,768.93 919.072,759.43 904,743.5C 890.912,723.32 887.912,701.653 895,678.5C 899.547,665.898 906.714,655.065 916.5,646C 923.386,640.939 930.386,636.106 937.5,631.5C 927.007,625.498 917.507,618.164 909,609.5C 900.933,597.45 897.433,584.117 898.5,569.5C 898.298,548.204 907.298,532.037 925.5,521C 941.846,512.086 959.179,506.919 977.5,505.5 Z"/></g>
<g><path style="opacity:0.996" fill="#fdfbf3" d="M 776.5,512.5 C 793.833,512.5 811.167,512.5 828.5,512.5C 828.168,569.002 828.501,625.336 829.5,681.5C 840.5,681.5 851.5,681.5 862.5,681.5C 862.5,696.167 862.5,710.833 862.5,725.5C 851.5,725.5 840.5,725.5 829.5,725.5C 828.504,739.323 828.171,753.323 828.5,767.5C 812.5,767.5 796.5,767.5 780.5,767.5C 780.5,753.5 780.5,739.5 780.5,725.5C 738.003,724.501 695.337,724.168 652.5,724.5C 652.5,708.833 652.5,693.167 652.5,677.5C 693.59,622.321 734.923,567.321 776.5,512.5 Z"/></g>
<g><path style="opacity:0.973" fill="#f8e8b6" d="M 776.5,512.5 C 793.992,511.503 811.659,511.17 829.5,511.5C 829.5,568.167 829.5,624.833 829.5,681.5C 828.501,625.336 828.168,569.002 828.5,512.5C 811.167,512.5 793.833,512.5 776.5,512.5 Z"/></g>
<g><path style="opacity:0.933" fill="#edc540" d="M 975.5,549.5 C 988.146,548.581 1000.48,550.081 1012.5,554C 1022.18,560.05 1025.35,568.55 1022,579.5C 1014.93,595.068 1003.43,606.068 987.5,612.5C 974.914,607.746 964.08,600.412 955,590.5C 945.62,578.154 946.453,566.654 957.5,556C 963.294,552.905 969.294,550.739 975.5,549.5 Z"/></g>
<g><path style="opacity:0.933" fill="#edc53f" d="M 512.5,552.5 C 535.416,549.702 550.916,559.035 559,580.5C 562.513,591.245 564.847,602.245 566,613.5C 566.667,629.167 566.667,644.833 566,660.5C 565.274,680.754 559.607,699.421 549,716.5C 537.339,728.728 523.506,731.895 507.5,726C 495.994,720.156 488.494,710.989 485,698.5C 477.848,671.962 475.514,644.962 478,617.5C 478.264,597.711 483.931,579.711 495,563.5C 500.206,558.657 506.039,554.99 512.5,552.5 Z"/></g>
<g><path style="opacity:0.933" fill="#edc542" d="M 779.5,581.5 C 780.498,614.662 780.832,647.996 780.5,681.5C 754.831,681.667 729.165,681.5 703.5,681C 728.963,647.893 754.297,614.727 779.5,581.5 Z"/></g>
<g><path style="opacity:0.933" fill="#edc540" d="M 986.5,650.5 C 1008.34,657.839 1022.51,672.505 1029,694.5C 1030.67,715.294 1021.17,727.461 1000.5,731C 991.167,731.667 981.833,731.667 972.5,731C 950.052,726.603 940.552,713.103 944,690.5C 947.713,678.446 954.88,668.946 965.5,662C 972.273,657.616 979.273,653.783 986.5,650.5 Z"/></g>
<g><path style="opacity:0.976" fill="#f8ebbb" d="M 652.5,677.5 C 652.5,693.167 652.5,708.833 652.5,724.5C 695.337,724.168 738.003,724.501 780.5,725.5C 780.167,725.5 779.833,725.5 779.5,725.5C 736.833,725.5 694.167,725.5 651.5,725.5C 651.17,709.325 651.504,693.325 652.5,677.5 Z"/></g>
<g><path style="opacity:0.976" fill="#f7e7b0" d="M 779.5,725.5 C 779.833,725.5 780.167,725.5 780.5,725.5C 780.5,739.5 780.5,753.5 780.5,767.5C 796.5,767.5 812.5,767.5 828.5,767.5C 828.171,753.323 828.504,739.323 829.5,725.5C 829.5,739.833 829.5,754.167 829.5,768.5C 812.833,768.5 796.167,768.5 779.5,768.5C 779.5,754.167 779.5,739.833 779.5,725.5 Z"/></g>
</svg>
