<svg width="32" height="32" viewBox="0 0 32 32" fill="none" xmlns="http://www.w3.org/2000/svg">
<g clip-path="url(#clip0_975_586)">
<g clip-path="url(#clip1_975_586)">
<rect width="32" height="32" rx="6" fill="#FFCE27" style="fill:#FFCE27;fill:color(display-p3 0.9981 0.8071 0.1530);fill-opacity:1;"/>
<path d="M1.10976 20.098C1.02376 20.098 0.949488 20.0707 0.886943 20.0159C0.832215 19.9612 0.804851 19.8908 0.804851 19.8048V18.9722C0.804851 18.9175 0.820488 18.8354 0.851761 18.7259C0.883034 18.6086 0.965125 18.4992 1.09803 18.3976L2.31768 17.2014C2.94314 16.7245 3.45523 16.3218 3.85396 15.9935C4.26051 15.6573 4.56151 15.3602 4.75697 15.1022C4.95242 14.8442 5.05015 14.6018 5.05015 14.3751C5.05015 14.1093 4.97979 13.8903 4.83906 13.7183C4.70615 13.5385 4.4716 13.4486 4.13542 13.4486C3.90869 13.4486 3.71714 13.4994 3.56078 13.6011C3.41223 13.6949 3.29887 13.82 3.22068 13.9763C3.1425 14.1327 3.08777 14.293 3.0565 14.4572C3.02523 14.5588 2.9705 14.6292 2.89232 14.6683C2.82196 14.7074 2.74377 14.7269 2.65777 14.7269H1.19185C1.12149 14.7269 1.06285 14.7034 1.01594 14.6565C0.969034 14.6096 0.945579 14.551 0.945579 14.4806C0.953398 14.1053 1.03158 13.7535 1.18013 13.4252C1.33649 13.0968 1.55149 12.8075 1.82513 12.5573C2.10659 12.2993 2.43886 12.1 2.82196 11.9592C3.21287 11.8185 3.65069 11.7482 4.13542 11.7482C4.79997 11.7482 5.36288 11.8537 5.82416 12.0648C6.29325 12.2759 6.64898 12.573 6.89134 12.9561C7.13371 13.3313 7.25489 13.7731 7.25489 14.2813C7.25489 14.6644 7.16889 15.024 6.99689 15.3602C6.83271 15.6885 6.59425 16.0052 6.28152 16.3101C5.97661 16.6072 5.61306 16.916 5.19088 17.2365L4.11196 18.3272H7.12589C7.21189 18.3272 7.28226 18.3546 7.33698 18.4093C7.39953 18.464 7.4308 18.5344 7.4308 18.6204V19.8048C7.4308 19.8908 7.39953 19.9612 7.33698 20.0159C7.28226 20.0707 7.21189 20.098 7.12589 20.098H1.10976ZM11.927 20.2153C11.364 20.2153 10.8754 20.1371 10.461 19.9807C10.0467 19.8166 9.70267 19.5937 9.42903 19.3123C9.16321 19.0308 8.95994 18.7025 8.81921 18.3272C8.67848 17.9519 8.59639 17.5493 8.57294 17.1193C8.56512 16.9082 8.5573 16.6697 8.54948 16.4039C8.54948 16.1303 8.54948 15.8566 8.54948 15.583C8.5573 15.3015 8.56512 15.0514 8.57294 14.8324C8.59639 14.4024 8.67848 14.0037 8.81921 13.6363C8.96776 13.261 9.17885 12.9365 9.45249 12.6629C9.73394 12.3814 10.0779 12.1625 10.4845 12.0062C10.8989 11.8498 11.3797 11.7716 11.927 11.7716C12.4821 11.7716 12.9629 11.8498 13.3694 12.0062C13.776 12.1625 14.1161 12.3814 14.3897 12.6629C14.6712 12.9365 14.8862 13.261 15.0347 13.6363C15.1833 14.0037 15.2653 14.4024 15.281 14.8324C15.2966 15.0514 15.3044 15.3015 15.3044 15.583C15.3123 15.8566 15.3123 16.1303 15.3044 16.4039C15.3044 16.6697 15.2966 16.9082 15.281 17.1193C15.2653 17.5493 15.1833 17.9519 15.0347 18.3272C14.894 18.7025 14.6868 19.0308 14.4132 19.3123C14.1473 19.5937 13.8072 19.8166 13.3929 19.9807C12.9863 20.1371 12.4977 20.2153 11.927 20.2153ZM11.927 18.5148C12.3335 18.5148 12.6267 18.3858 12.8065 18.1278C12.9941 17.862 13.0919 17.5063 13.0997 17.0606C13.1153 16.8339 13.1231 16.5955 13.1231 16.3453C13.131 16.0951 13.131 15.8449 13.1231 15.5947C13.1231 15.3445 13.1153 15.1139 13.0997 14.9028C13.0919 14.4728 12.9941 14.1249 12.8065 13.8591C12.6267 13.5933 12.3335 13.4564 11.927 13.4486C11.5204 13.4564 11.2272 13.5933 11.0474 13.8591C10.8676 14.1249 10.7699 14.4728 10.7542 14.9028C10.7464 15.1139 10.7386 15.3445 10.7308 15.5947C10.7308 15.8449 10.7308 16.0951 10.7308 16.3453C10.7386 16.5955 10.7464 16.8339 10.7542 17.0606C10.7699 17.5063 10.8715 17.862 11.0591 18.1278C11.2468 18.3858 11.536 18.5148 11.927 18.5148ZM20.4843 20.098C20.4061 20.098 20.3357 20.0707 20.2732 20.0159C20.2184 19.9612 20.1911 19.8908 20.1911 19.8048V18.4796H16.5439C16.4657 18.4796 16.3953 18.4523 16.3328 18.3976C16.278 18.3428 16.2507 18.2725 16.2507 18.1865V17.0724C16.2507 17.002 16.2624 16.9395 16.2859 16.8847C16.3171 16.8222 16.3484 16.7635 16.3797 16.7088L19.7923 12.0882C19.894 11.9553 20.0386 11.8889 20.2263 11.8889H21.9267C22.0127 11.8889 22.0831 11.9162 22.1378 11.971C22.2004 12.0257 22.2316 12.0961 22.2316 12.1821V16.7323H23.2636C23.3575 16.7323 23.4317 16.7635 23.4865 16.8261C23.5412 16.8808 23.5685 16.9473 23.5685 17.0255V18.1865C23.5685 18.2725 23.5373 18.3428 23.4747 18.3976C23.42 18.4523 23.3535 18.4796 23.2754 18.4796H22.2316V19.8048C22.2316 19.8908 22.2004 19.9612 22.1378 20.0159C22.0831 20.0707 22.0127 20.098 21.9267 20.098H20.4843ZM18.2678 16.8144H20.238V14.0467L18.2678 16.8144ZM27.88 20.2153C27.3014 20.2153 26.7933 20.1488 26.3554 20.0159C25.9254 19.883 25.5697 19.6993 25.2883 19.4647C25.0068 19.2224 24.7957 18.9487 24.655 18.6438C24.5142 18.3311 24.4439 17.9949 24.4439 17.6353C24.4439 17.2053 24.5494 16.8261 24.7605 16.4977C24.9794 16.1694 25.2531 15.9153 25.5814 15.7354C25.3078 15.5556 25.0967 15.3328 24.9482 15.067C24.8074 14.7934 24.7371 14.4767 24.7371 14.1171C24.7371 13.6793 24.8504 13.2844 25.0772 12.9326C25.3039 12.5808 25.6479 12.2993 26.1092 12.0882C26.5704 11.8772 27.1607 11.7716 27.88 11.7716C28.5915 11.7716 29.1778 11.8772 29.6391 12.0882C30.1004 12.2915 30.4405 12.5691 30.6594 12.9209C30.8861 13.2727 30.9995 13.6675 30.9995 14.1053C30.9995 14.4572 30.9291 14.7738 30.7884 15.0553C30.6477 15.3289 30.4444 15.5556 30.1786 15.7354C30.5226 15.9075 30.8001 16.1615 31.0112 16.4977C31.2223 16.8339 31.3278 17.217 31.3278 17.647C31.3278 18.1161 31.1988 18.5461 30.9408 18.937C30.6907 19.3279 30.3115 19.6407 29.8033 19.8752C29.2951 20.1019 28.654 20.2153 27.88 20.2153ZM27.88 18.7259C28.1302 18.7259 28.353 18.6829 28.5485 18.5969C28.7517 18.5031 28.912 18.378 29.0293 18.2216C29.1466 18.0575 29.2052 17.8659 29.2052 17.647C29.2052 17.4125 29.1466 17.217 29.0293 17.0606C28.912 16.9043 28.7517 16.7831 28.5485 16.6971C28.353 16.6111 28.1302 16.5681 27.88 16.5681C27.6298 16.5681 27.4031 16.6111 27.1998 16.6971C26.9965 16.7831 26.8363 16.9043 26.719 17.0606C26.6017 17.217 26.5431 17.4125 26.5431 17.647C26.5431 17.8659 26.6017 18.0575 26.719 18.2216C26.8363 18.378 26.9965 18.5031 27.1998 18.5969C27.4031 18.6829 27.6298 18.7259 27.88 18.7259ZM27.88 15.1491C28.0989 15.1491 28.2983 15.11 28.4781 15.0318C28.6579 14.9458 28.7986 14.8364 28.9003 14.7034C29.0019 14.5627 29.0527 14.3985 29.0527 14.2109C29.0527 14.0233 29.0019 13.8591 28.9003 13.7183C28.8065 13.5776 28.6696 13.4682 28.4898 13.39C28.31 13.3118 28.1067 13.2727 27.88 13.2727C27.6533 13.2727 27.45 13.3118 27.2702 13.39C27.0904 13.4682 26.9496 13.5776 26.848 13.7183C26.7542 13.8591 26.7073 14.0233 26.7073 14.2109C26.7073 14.3985 26.7542 14.5627 26.848 14.7034C26.9496 14.8442 27.0904 14.9536 27.2702 15.0318C27.45 15.11 27.6533 15.1491 27.88 15.1491Z" fill="white" style="fill:white;fill-opacity:1;"/>
</g>
</g>
<defs>
<clipPath id="clip0_975_586">
<rect width="32" height="32" fill="white" style="fill:white;fill-opacity:1;"/>
</clipPath>
<clipPath id="clip1_975_586">
<rect width="32" height="32" rx="6" fill="white" style="fill:white;fill-opacity:1;"/>
</clipPath>
</defs>
</svg>
