<svg width="151" height="51" viewBox="0 0 151 51" fill="none" xmlns="http://www.w3.org/2000/svg">
<path d="M35.316 30H0.9V26.868C0.9 26.196 0.912 25.632 0.936 25.176C0.984 24.696 1.104 24.072 1.296 23.304C1.512 22.512 1.8 21.828 2.16 21.252C2.52 20.652 3.048 19.98 3.744 19.236C4.464 18.492 5.316 17.832 6.3 17.256C7.308 16.68 8.568 16.104 10.08 15.528C11.616 14.952 13.344 14.46 15.264 14.052C16.656 13.716 18.384 13.368 20.448 13.008C22.032 12.696 23.052 12.396 23.508 12.108C23.964 11.82 24.192 11.448 24.192 10.992C24.192 10.632 24.06 10.344 23.796 10.128C23.556 9.888 22.98 9.684 22.068 9.516C21.18 9.324 19.932 9.228 18.324 9.228C17.148 9.228 16.128 9.324 15.264 9.516C14.424 9.708 13.788 9.924 13.356 10.164C12.948 10.38 12.612 10.68 12.348 11.064C12.108 11.448 11.952 11.748 11.88 11.964C11.832 12.156 11.796 12.408 11.772 12.72H1.332V12.468C1.332 5.964 6.636 2.712 17.244 2.712H18.792C21.408 2.712 23.688 2.868 25.632 3.18C27.6 3.468 29.16 3.864 30.312 4.368C31.488 4.848 32.424 5.46 33.12 6.204C33.816 6.948 34.284 7.704 34.524 8.472C34.788 9.216 34.92 10.068 34.92 11.028V11.172C34.92 12.708 34.572 13.968 33.876 14.952C33.18 15.912 31.944 16.74 30.168 17.436C28.416 18.132 25.932 18.744 22.716 19.272L16.956 20.244C12.18 21.06 9.792 22.068 9.792 23.268H25.848V20.1H35.316V30ZM76.2086 16.032V17.112C76.2086 18.24 76.0886 19.332 75.8486 20.388C75.6326 21.444 75.1166 22.62 74.3006 23.916C73.5086 25.188 72.4646 26.292 71.1686 27.228C69.8726 28.14 68.0366 28.92 65.6606 29.568C63.3086 30.192 60.5606 30.504 57.4166 30.504H55.7966C52.6526 30.504 49.8926 30.192 47.5166 29.568C45.1406 28.92 43.3046 28.14 42.0086 27.228C40.7126 26.292 39.6566 25.188 38.8406 23.916C38.0486 22.62 37.5326 21.444 37.2926 20.388C37.0766 19.332 36.9686 18.24 36.9686 17.112V16.032C36.9686 15.24 37.0166 14.472 37.1126 13.728C37.2326 12.984 37.4606 12.156 37.7966 11.244C38.1566 10.332 38.6126 9.492 39.1646 8.724C39.7166 7.932 40.4726 7.164 41.4326 6.42C42.4166 5.652 43.5446 5.004 44.8166 4.476C46.1126 3.948 47.6966 3.528 49.5686 3.216C51.4406 2.88 53.5166 2.712 55.7966 2.712H57.4166C59.6966 2.712 61.7726 2.88 63.6446 3.216C65.5166 3.528 67.0886 3.948 68.3606 4.476C69.6326 5.004 70.7486 5.652 71.7086 6.42C72.6926 7.164 73.4606 7.932 74.0126 8.724C74.5646 9.492 75.0086 10.332 75.3446 11.244C75.7046 12.156 75.9326 12.984 76.0286 13.728C76.1486 14.472 76.2086 15.24 76.2086 16.032ZM65.5886 16.716V16.248C65.5886 15.48 65.4446 14.76 65.1566 14.088C64.8926 13.392 64.4366 12.72 63.7886 12.072C63.1646 11.4 62.2286 10.872 60.9806 10.488C59.7566 10.104 58.2926 9.912 56.5886 9.912C54.8366 9.912 53.3366 10.104 52.0886 10.488C50.8406 10.872 49.9046 11.4 49.2806 12.072C48.6566 12.72 48.2126 13.392 47.9486 14.088C47.6846 14.76 47.5526 15.48 47.5526 16.248V16.68C47.5526 17.448 47.6846 18.192 47.9486 18.912C48.2366 19.608 48.6926 20.304 49.3166 21C49.9646 21.672 50.9126 22.212 52.1606 22.62C53.4086 23.028 54.8846 23.232 56.5886 23.232C58.2926 23.232 59.7566 23.028 60.9806 22.62C62.2286 22.212 63.1646 21.672 63.7886 21C64.4366 20.328 64.8926 19.644 65.1566 18.948C65.4446 18.228 65.5886 17.484 65.5886 16.716ZM77.4953 19.092L96.2153 3.072H107.447V17.976H113.027V24.888H107.447V30H97.2593V24.888H77.4953V19.092ZM97.2593 17.976V9.984L87.8993 17.976H97.2593ZM149.05 9.912V10.236C149.05 11.772 148.45 13.044 147.25 14.052C146.05 15.036 144.658 15.636 143.074 15.852C144.922 16.164 146.482 16.848 147.754 17.904C149.05 18.96 149.698 20.304 149.698 21.936V22.332C149.698 23.1 149.602 23.808 149.41 24.456C149.242 25.104 148.81 25.824 148.114 26.616C147.418 27.408 146.482 28.08 145.306 28.632C144.154 29.16 142.498 29.616 140.338 30C138.178 30.36 135.634 30.54 132.706 30.54H131.158C128.182 30.54 125.602 30.36 123.418 30C121.258 29.616 119.59 29.16 118.414 28.632C117.262 28.08 116.35 27.408 115.678 26.616C115.006 25.8 114.586 25.08 114.418 24.456C114.25 23.832 114.166 23.124 114.166 22.332V21.936C114.166 20.328 114.814 18.996 116.11 17.94C117.406 16.86 118.966 16.164 120.79 15.852C119.134 15.588 117.718 14.976 116.542 14.016C115.366 13.032 114.778 11.772 114.778 10.236V9.912C114.778 9.36 114.838 8.868 114.958 8.436C115.078 7.98 115.306 7.452 115.642 6.852C116.002 6.252 116.554 5.724 117.298 5.268C118.066 4.812 119.026 4.38 120.178 3.972C121.33 3.564 122.842 3.252 124.714 3.036C126.586 2.82 128.734 2.712 131.158 2.712H132.742C134.83 2.712 136.714 2.808 138.394 3C140.074 3.168 141.466 3.396 142.57 3.684C143.698 3.948 144.67 4.284 145.486 4.692C146.302 5.1 146.926 5.508 147.358 5.916C147.814 6.324 148.174 6.792 148.438 7.32C148.702 7.824 148.87 8.268 148.942 8.652C149.014 9.036 149.05 9.456 149.05 9.912ZM138.43 10.884V10.776C138.43 10.488 138.358 10.236 138.214 10.02C138.094 9.804 137.83 9.576 137.422 9.336C137.014 9.096 136.342 8.916 135.406 8.796C134.494 8.676 133.33 8.616 131.914 8.616C130.042 8.616 128.59 8.748 127.558 9.012C126.55 9.252 125.938 9.504 125.722 9.768C125.506 10.032 125.398 10.368 125.398 10.776V10.884C125.398 11.196 125.458 11.472 125.578 11.712C125.722 11.928 125.998 12.156 126.406 12.396C126.838 12.612 127.51 12.792 128.422 12.936C129.358 13.056 130.522 13.116 131.914 13.116C133.306 13.116 134.458 13.056 135.37 12.936C136.306 12.792 136.978 12.612 137.386 12.396C137.818 12.156 138.094 11.928 138.214 11.712C138.358 11.472 138.43 11.196 138.43 10.884ZM139.15 21.684V21.576C139.15 21.096 139.006 20.712 138.718 20.424C138.43 20.112 137.722 19.836 136.594 19.596C135.49 19.332 133.93 19.2 131.914 19.2C129.898 19.2 128.326 19.332 127.198 19.596C126.094 19.836 125.398 20.112 125.11 20.424C124.846 20.712 124.714 21.096 124.714 21.576V21.684C124.714 23.34 127.114 24.168 131.914 24.168C136.738 24.168 139.15 23.34 139.15 21.684Z" fill="white"/>
<path d="M4.6735 47V44.2865L2.5 40.52H3.265L5.0065 43.5305L6.739 40.52H7.504L5.3395 44.2865V47H4.6735ZM9.43977 47.135C8.95677 47.135 8.54427 47.0255 8.20227 46.8065C7.86027 46.5875 7.59777 46.2845 7.41477 45.8975C7.23177 45.5105 7.14027 45.0665 7.14027 44.5655C7.14027 44.0555 7.23327 43.6085 7.41927 43.2245C7.60527 42.8405 7.86927 42.542 8.21127 42.329C8.55627 42.113 8.96577 42.005 9.43977 42.005C9.92577 42.005 10.3398 42.1145 10.6818 42.3335C11.0268 42.5495 11.2893 42.851 11.4693 43.238C11.6523 43.622 11.7438 44.0645 11.7438 44.5655C11.7438 45.0755 11.6523 45.524 11.4693 45.911C11.2863 46.295 11.0223 46.595 10.6773 46.811C10.3323 47.027 9.91977 47.135 9.43977 47.135ZM9.43977 46.5005C9.97977 46.5005 10.3818 46.322 10.6458 45.965C10.9098 45.605 11.0418 45.1385 11.0418 44.5655C11.0418 43.9775 10.9083 43.5095 10.6413 43.1615C10.3773 42.8135 9.97677 42.6395 9.43977 42.6395C9.07677 42.6395 8.77677 42.722 8.53977 42.887C8.30577 43.049 8.13027 43.2755 8.01327 43.5665C7.89927 43.8545 7.84227 44.1875 7.84227 44.5655C7.84227 45.1505 7.97727 45.62 8.24727 45.974C8.51727 46.325 8.91477 46.5005 9.43977 46.5005ZM14.5949 47.1215C14.3039 47.1215 14.0489 47.0765 13.8299 46.9865C13.6139 46.8965 13.4294 46.775 13.2764 46.622C13.1264 46.469 13.0049 46.295 12.9119 46.1C12.8189 45.902 12.7514 45.6935 12.7094 45.4745C12.6674 45.2525 12.6464 45.032 12.6464 44.813V42.14H13.3124V44.6195C13.3124 44.8865 13.3379 45.134 13.3889 45.362C13.4399 45.59 13.5209 45.7895 13.6319 45.9605C13.7459 46.1285 13.8914 46.259 14.0684 46.352C14.2484 46.445 14.4659 46.4915 14.7209 46.4915C14.9549 46.4915 15.1604 46.451 15.3374 46.37C15.5174 46.289 15.6674 46.1735 15.7874 46.0235C15.9104 45.8705 16.0034 45.686 16.0664 45.47C16.1294 45.251 16.1609 45.005 16.1609 44.732L16.6289 44.8355C16.6289 45.3335 16.5419 45.752 16.3679 46.091C16.1939 46.43 15.9539 46.6865 15.6479 46.8605C15.3419 47.0345 14.9909 47.1215 14.5949 47.1215ZM16.2284 47V45.803H16.1609V42.14H16.8224V47H16.2284ZM18.0802 47V42.14H18.6742V43.31L18.5572 43.157C18.6112 43.013 18.6817 42.881 18.7687 42.761C18.8557 42.638 18.9502 42.5375 19.0522 42.4595C19.1782 42.3485 19.3252 42.2645 19.4932 42.2075C19.6612 42.1475 19.8307 42.113 20.0017 42.104C20.1727 42.092 20.3287 42.104 20.4697 42.14V42.761C20.2927 42.716 20.0992 42.7055 19.8892 42.7295C19.6792 42.7535 19.4857 42.8375 19.3087 42.9815C19.1467 43.1075 19.0252 43.259 18.9442 43.436C18.8632 43.61 18.8092 43.796 18.7822 43.994C18.7552 44.189 18.7417 44.3825 18.7417 44.5745V47H18.0802ZM23.1251 47V40.52H23.7326L26.2796 45.9695L28.8131 40.52H29.4296V46.9955H28.7996V41.996L26.4911 47H26.0636L23.7596 41.996V47H23.1251ZM32.722 47.135C32.239 47.135 31.8265 47.0255 31.4845 46.8065C31.1425 46.5875 30.88 46.2845 30.697 45.8975C30.514 45.5105 30.4225 45.0665 30.4225 44.5655C30.4225 44.0555 30.5155 43.6085 30.7015 43.2245C30.8875 42.8405 31.1515 42.542 31.4935 42.329C31.8385 42.113 32.248 42.005 32.722 42.005C33.208 42.005 33.622 42.1145 33.964 42.3335C34.309 42.5495 34.5715 42.851 34.7515 43.238C34.9345 43.622 35.026 44.0645 35.026 44.5655C35.026 45.0755 34.9345 45.524 34.7515 45.911C34.5685 46.295 34.3045 46.595 33.9595 46.811C33.6145 47.027 33.202 47.135 32.722 47.135ZM32.722 46.5005C33.262 46.5005 33.664 46.322 33.928 45.965C34.192 45.605 34.324 45.1385 34.324 44.5655C34.324 43.9775 34.1905 43.5095 33.9235 43.1615C33.6595 42.8135 33.259 42.6395 32.722 42.6395C32.359 42.6395 32.059 42.722 31.822 42.887C31.588 43.049 31.4125 43.2755 31.2955 43.5665C31.1815 43.8545 31.1245 44.1875 31.1245 44.5655C31.1245 45.1505 31.2595 45.62 31.5295 45.974C31.7995 46.325 32.197 46.5005 32.722 46.5005ZM37.1569 47L35.3929 42.14H36.0634L37.4989 46.136L38.9254 42.14H39.6049L37.8409 47H37.1569ZM42.2939 47.135C41.8199 47.135 41.4089 47.03 41.0609 46.82C40.7159 46.61 40.4474 46.3145 40.2554 45.9335C40.0634 45.5525 39.9674 45.1055 39.9674 44.5925C39.9674 44.0615 40.0619 43.6025 40.2509 43.2155C40.4399 42.8285 40.7054 42.53 41.0474 42.32C41.3924 42.11 41.7989 42.005 42.2669 42.005C42.7469 42.005 43.1564 42.116 43.4954 42.338C43.8344 42.557 44.0909 42.872 44.2649 43.283C44.4389 43.694 44.5184 44.1845 44.5034 44.7545H43.8284V44.5205C43.8164 43.8905 43.6799 43.415 43.4189 43.094C43.1609 42.773 42.7829 42.6125 42.2849 42.6125C41.7629 42.6125 41.3624 42.782 41.0834 43.121C40.8074 43.46 40.6694 43.943 40.6694 44.57C40.6694 45.182 40.8074 45.6575 41.0834 45.9965C41.3624 46.3325 41.7569 46.5005 42.2669 46.5005C42.6149 46.5005 42.9179 46.421 43.1759 46.262C43.4369 46.1 43.6424 45.8675 43.7924 45.5645L44.4089 45.803C44.2169 46.226 43.9334 46.5545 43.5584 46.7885C43.1864 47.0195 42.7649 47.135 42.2939 47.135ZM40.4354 44.7545V44.201H44.1479V44.7545H40.4354ZM45.2363 47.9405L45.2768 47.612C45.3968 47.621 45.4838 47.597 45.5378 47.54C45.5918 47.483 45.6248 47.4065 45.6368 47.3105C45.6488 47.2145 45.6518 47.111 45.6458 47H45.2363V46.0505H46.0058V47.18C46.0058 47.456 45.9353 47.663 45.7943 47.801C45.6563 47.939 45.4703 47.9855 45.2363 47.9405ZM51.0622 47V44.2865L48.8887 40.52H49.6537L51.3952 43.5305L53.1277 40.52H53.8927L51.7282 44.2865V47H51.0622ZM55.8284 47.135C55.3454 47.135 54.9329 47.0255 54.5909 46.8065C54.2489 46.5875 53.9864 46.2845 53.8034 45.8975C53.6204 45.5105 53.5289 45.0665 53.5289 44.5655C53.5289 44.0555 53.6219 43.6085 53.8079 43.2245C53.9939 42.8405 54.2579 42.542 54.5999 42.329C54.9449 42.113 55.3544 42.005 55.8284 42.005C56.3144 42.005 56.7284 42.1145 57.0704 42.3335C57.4154 42.5495 57.6779 42.851 57.8579 43.238C58.0409 43.622 58.1324 44.0645 58.1324 44.5655C58.1324 45.0755 58.0409 45.524 57.8579 45.911C57.6749 46.295 57.4109 46.595 57.0659 46.811C56.7209 47.027 56.3084 47.135 55.8284 47.135ZM55.8284 46.5005C56.3684 46.5005 56.7704 46.322 57.0344 45.965C57.2984 45.605 57.4304 45.1385 57.4304 44.5655C57.4304 43.9775 57.2969 43.5095 57.0299 43.1615C56.7659 42.8135 56.3654 42.6395 55.8284 42.6395C55.4654 42.6395 55.1654 42.722 54.9284 42.887C54.6944 43.049 54.5189 43.2755 54.4019 43.5665C54.2879 43.8545 54.2309 44.1875 54.2309 44.5655C54.2309 45.1505 54.3659 45.62 54.6359 45.974C54.9059 46.325 55.3034 46.5005 55.8284 46.5005ZM60.9836 47.1215C60.6926 47.1215 60.4376 47.0765 60.2186 46.9865C60.0026 46.8965 59.8181 46.775 59.6651 46.622C59.5151 46.469 59.3936 46.295 59.3006 46.1C59.2076 45.902 59.1401 45.6935 59.0981 45.4745C59.0561 45.2525 59.0351 45.032 59.0351 44.813V42.14H59.7011V44.6195C59.7011 44.8865 59.7266 45.134 59.7776 45.362C59.8286 45.59 59.9096 45.7895 60.0206 45.9605C60.1346 46.1285 60.2801 46.259 60.4571 46.352C60.6371 46.445 60.8546 46.4915 61.1096 46.4915C61.3436 46.4915 61.5491 46.451 61.7261 46.37C61.9061 46.289 62.0561 46.1735 62.1761 46.0235C62.2991 45.8705 62.3921 45.686 62.4551 45.47C62.5181 45.251 62.5496 45.005 62.5496 44.732L63.0176 44.8355C63.0176 45.3335 62.9306 45.752 62.7566 46.091C62.5826 46.43 62.3426 46.6865 62.0366 46.8605C61.7306 47.0345 61.3796 47.1215 60.9836 47.1215ZM62.6171 47V45.803H62.5496V42.14H63.2111V47H62.6171ZM64.4689 47V42.14H65.0629V43.31L64.9459 43.157C64.9999 43.013 65.0704 42.881 65.1574 42.761C65.2444 42.638 65.3389 42.5375 65.4409 42.4595C65.5669 42.3485 65.7139 42.2645 65.8819 42.2075C66.0499 42.1475 66.2194 42.113 66.3904 42.104C66.5614 42.092 66.7174 42.104 66.8584 42.14V42.761C66.6814 42.716 66.4879 42.7055 66.2779 42.7295C66.0679 42.7535 65.8744 42.8375 65.6974 42.9815C65.5354 43.1075 65.4139 43.259 65.3329 43.436C65.2519 43.61 65.1979 43.796 65.1709 43.994C65.1439 44.189 65.1304 44.3825 65.1304 44.5745V47H64.4689ZM72.1103 47.135C71.6543 47.135 71.2433 47.0555 70.8773 46.8965C70.5113 46.7375 70.1993 46.511 69.9413 46.217C69.6863 45.923 69.4913 45.569 69.3563 45.155C69.2213 44.738 69.1538 44.273 69.1538 43.76C69.1538 43.082 69.2708 42.491 69.5048 41.987C69.7418 41.48 70.0808 41.087 70.5218 40.808C70.9628 40.529 71.4923 40.3895 72.1103 40.3895C72.8003 40.3895 73.3613 40.5515 73.7933 40.8755C74.2283 41.1965 74.5313 41.6285 74.7023 42.1715L74.0363 42.3335C73.8953 41.9375 73.6628 41.621 73.3388 41.384C73.0178 41.147 72.6173 41.0285 72.1373 41.0285C71.6303 41.0255 71.2088 41.1395 70.8728 41.3705C70.5368 41.5985 70.2833 41.9195 70.1123 42.3335C69.9443 42.7445 69.8588 43.22 69.8558 43.76C69.8528 44.3 69.9353 44.7755 70.1033 45.1865C70.2743 45.5945 70.5293 45.9155 70.8683 46.1495C71.2073 46.3805 71.6303 46.4975 72.1373 46.5005C72.6023 46.5005 72.9863 46.4105 73.2893 46.2305C73.5923 46.0505 73.8218 45.7925 73.9778 45.4565C74.1368 45.1205 74.2268 44.723 74.2478 44.264H72.7538V43.697H74.9408C74.9498 43.766 74.9543 43.8395 74.9543 43.9175C74.9573 43.9925 74.9588 44.0465 74.9588 44.0795C74.9588 44.6645 74.8538 45.188 74.6438 45.65C74.4338 46.109 74.1173 46.472 73.6943 46.739C73.2743 47.003 72.7463 47.135 72.1103 47.135ZM77.25 47.135C76.884 47.135 76.5765 47.069 76.3275 46.937C76.0815 46.805 75.897 46.6295 75.774 46.4105C75.651 46.1915 75.5895 45.953 75.5895 45.695C75.5895 45.431 75.642 45.206 75.747 45.02C75.855 44.831 76.0005 44.6765 76.1835 44.5565C76.3695 44.4365 76.584 44.345 76.827 44.282C77.073 44.222 77.3445 44.1695 77.6415 44.1245C77.9415 44.0765 78.234 44.036 78.519 44.003C78.807 43.967 79.059 43.9325 79.275 43.8995L79.041 44.0435C79.05 43.5635 78.957 43.208 78.762 42.977C78.567 42.746 78.228 42.6305 77.745 42.6305C77.412 42.6305 77.13 42.7055 76.899 42.8555C76.671 43.0055 76.5105 43.2425 76.4175 43.5665L75.774 43.3775C75.885 42.9425 76.1085 42.605 76.4445 42.365C76.7805 42.125 77.217 42.005 77.754 42.005C78.198 42.005 78.5745 42.089 78.8835 42.257C79.1955 42.422 79.416 42.662 79.545 42.977C79.605 43.118 79.644 43.2755 79.662 43.4495C79.68 43.6235 79.689 43.8005 79.689 43.9805V47H79.0995V45.7805L79.2705 45.8525C79.1055 46.2695 78.849 46.5875 78.501 46.8065C78.153 47.0255 77.736 47.135 77.25 47.135ZM77.3265 46.5635C77.6355 46.5635 77.9055 46.508 78.1365 46.397C78.3675 46.286 78.5535 46.1345 78.6945 45.9425C78.8355 45.7475 78.927 45.5285 78.969 45.2855C79.005 45.1295 79.0245 44.9585 79.0275 44.7725C79.0305 44.5835 79.032 44.4425 79.032 44.3495L79.284 44.48C79.059 44.51 78.8145 44.54 78.5505 44.57C78.2895 44.6 78.0315 44.6345 77.7765 44.6735C77.5245 44.7125 77.2965 44.759 77.0925 44.813C76.9545 44.852 76.821 44.9075 76.692 44.9795C76.563 45.0485 76.4565 45.1415 76.3725 45.2585C76.2915 45.3755 76.251 45.521 76.251 45.695C76.251 45.836 76.2855 45.9725 76.3545 46.1045C76.4265 46.2365 76.5405 46.346 76.6965 46.433C76.8555 46.52 77.0655 46.5635 77.3265 46.5635ZM86.6565 47L86.661 43.8095C86.661 43.4345 86.556 43.1405 86.346 42.9275C86.139 42.7115 85.875 42.6035 85.554 42.6035C85.371 42.6035 85.1925 42.6455 85.0185 42.7295C84.8445 42.8135 84.7005 42.9485 84.5865 43.1345C84.4755 43.3205 84.42 43.5635 84.42 43.8635L84.0285 43.751C84.0195 43.403 84.087 43.0985 84.231 42.8375C84.378 42.5765 84.579 42.374 84.834 42.23C85.092 42.083 85.383 42.0095 85.707 42.0095C86.196 42.0095 86.5875 42.161 86.8815 42.464C87.1755 42.764 87.3225 43.1705 87.3225 43.6835L87.318 47H86.6565ZM80.856 47V42.14H81.45V43.337H81.522V47H80.856ZM83.763 47L83.7675 43.8545C83.7675 43.4675 83.664 43.163 83.457 42.941C83.253 42.716 82.983 42.6035 82.647 42.6035C82.311 42.6035 82.0395 42.719 81.8325 42.95C81.6255 43.178 81.522 43.4825 81.522 43.8635L81.126 43.6475C81.126 43.3355 81.1995 43.0565 81.3465 42.8105C81.4935 42.5615 81.6945 42.3665 81.9495 42.2255C82.2045 42.0815 82.494 42.0095 82.818 42.0095C83.127 42.0095 83.4015 42.0755 83.6415 42.2075C83.8845 42.3395 84.075 42.5315 84.213 42.7835C84.351 43.0355 84.42 43.3415 84.42 43.7015L84.4155 47H83.763ZM90.5195 47.135C90.0455 47.135 89.6345 47.03 89.2865 46.82C88.9415 46.61 88.673 46.3145 88.481 45.9335C88.289 45.5525 88.193 45.1055 88.193 44.5925C88.193 44.0615 88.2875 43.6025 88.4765 43.2155C88.6655 42.8285 88.931 42.53 89.273 42.32C89.618 42.11 90.0245 42.005 90.4925 42.005C90.9725 42.005 91.382 42.116 91.721 42.338C92.06 42.557 92.3165 42.872 92.4905 43.283C92.6645 43.694 92.744 44.1845 92.729 44.7545H92.054V44.5205C92.042 43.8905 91.9055 43.415 91.6445 43.094C91.3865 42.773 91.0085 42.6125 90.5105 42.6125C89.9885 42.6125 89.588 42.782 89.309 43.121C89.033 43.46 88.895 43.943 88.895 44.57C88.895 45.182 89.033 45.6575 89.309 45.9965C89.588 46.3325 89.9825 46.5005 90.4925 46.5005C90.8405 46.5005 91.1435 46.421 91.4015 46.262C91.6625 46.1 91.868 45.8675 92.018 45.5645L92.6345 45.803C92.4425 46.226 92.159 46.5545 91.784 46.7885C91.412 47.0195 90.9905 47.135 90.5195 47.135ZM88.661 44.7545V44.201H92.3735V44.7545H88.661ZM93.4619 47.9405L93.5024 47.612C93.6224 47.621 93.7094 47.597 93.7634 47.54C93.8174 47.483 93.8504 47.4065 93.8624 47.3105C93.8744 47.2145 93.8774 47.111 93.8714 47H93.4619V46.0505H94.2314V47.18C94.2314 47.456 94.1609 47.663 94.0199 47.801C93.8819 47.939 93.6959 47.9855 93.4619 47.9405ZM99.2878 47V44.2865L97.1143 40.52H97.8793L99.6208 43.5305L101.353 40.52H102.118L99.9538 44.2865V47H99.2878ZM104.054 47.135C103.571 47.135 103.159 47.0255 102.817 46.8065C102.475 46.5875 102.212 46.2845 102.029 45.8975C101.846 45.5105 101.755 45.0665 101.755 44.5655C101.755 44.0555 101.848 43.6085 102.034 43.2245C102.22 42.8405 102.484 42.542 102.826 42.329C103.171 42.113 103.58 42.005 104.054 42.005C104.54 42.005 104.954 42.1145 105.296 42.3335C105.641 42.5495 105.904 42.851 106.084 43.238C106.267 43.622 106.358 44.0645 106.358 44.5655C106.358 45.0755 106.267 45.524 106.084 45.911C105.901 46.295 105.637 46.595 105.292 46.811C104.947 47.027 104.534 47.135 104.054 47.135ZM104.054 46.5005C104.594 46.5005 104.996 46.322 105.26 45.965C105.524 45.605 105.656 45.1385 105.656 44.5655C105.656 43.9775 105.523 43.5095 105.256 43.1615C104.992 42.8135 104.591 42.6395 104.054 42.6395C103.691 42.6395 103.391 42.722 103.154 42.887C102.92 43.049 102.745 43.2755 102.628 43.5665C102.514 43.8545 102.457 44.1875 102.457 44.5655C102.457 45.1505 102.592 45.62 102.862 45.974C103.132 46.325 103.529 46.5005 104.054 46.5005ZM109.209 47.1215C108.918 47.1215 108.663 47.0765 108.444 46.9865C108.228 46.8965 108.044 46.775 107.891 46.622C107.741 46.469 107.619 46.295 107.526 46.1C107.433 45.902 107.366 45.6935 107.324 45.4745C107.282 45.2525 107.261 45.032 107.261 44.813V42.14H107.927V44.6195C107.927 44.8865 107.952 45.134 108.003 45.362C108.054 45.59 108.135 45.7895 108.246 45.9605C108.36 46.1285 108.506 46.259 108.683 46.352C108.863 46.445 109.08 46.4915 109.335 46.4915C109.569 46.4915 109.775 46.451 109.952 46.37C110.132 46.289 110.282 46.1735 110.402 46.0235C110.525 45.8705 110.618 45.686 110.681 45.47C110.744 45.251 110.775 45.005 110.775 44.732L111.243 44.8355C111.243 45.3335 111.156 45.752 110.982 46.091C110.808 46.43 110.568 46.6865 110.262 46.8605C109.956 47.0345 109.605 47.1215 109.209 47.1215ZM110.843 47V45.803H110.775V42.14H111.437V47H110.843ZM112.694 47V42.14H113.288V43.31L113.171 43.157C113.225 43.013 113.296 42.881 113.383 42.761C113.47 42.638 113.564 42.5375 113.666 42.4595C113.792 42.3485 113.939 42.2645 114.107 42.2075C114.275 42.1475 114.445 42.113 114.616 42.104C114.787 42.092 114.943 42.104 115.084 42.14V42.761C114.907 42.716 114.713 42.7055 114.503 42.7295C114.293 42.7535 114.1 42.8375 113.923 42.9815C113.761 43.1075 113.639 43.259 113.558 43.436C113.477 43.61 113.423 43.796 113.396 43.994C113.369 44.189 113.356 44.3825 113.356 44.5745V47H112.694ZM119.386 47L117.154 40.52H117.843L119.818 46.2485L121.807 40.52H122.496L120.264 47H119.386ZM123.085 41.2175V40.475H123.747V41.2175H123.085ZM123.085 47V42.14H123.747V47H123.085ZM127.112 47.135C126.623 47.135 126.209 47.0255 125.87 46.8065C125.531 46.5875 125.273 46.286 125.096 45.902C124.922 45.515 124.832 45.071 124.826 44.57C124.832 44.06 124.925 43.613 125.105 43.229C125.285 42.842 125.544 42.542 125.883 42.329C126.222 42.113 126.633 42.005 127.116 42.005C127.608 42.005 128.036 42.125 128.399 42.365C128.765 42.605 129.015 42.9335 129.15 43.3505L128.502 43.5575C128.388 43.2665 128.207 43.0415 127.958 42.8825C127.712 42.7205 127.43 42.6395 127.112 42.6395C126.755 42.6395 126.459 42.722 126.225 42.887C125.991 43.049 125.817 43.2755 125.703 43.5665C125.589 43.8575 125.531 44.192 125.528 44.57C125.534 45.152 125.669 45.62 125.933 45.974C126.197 46.325 126.59 46.5005 127.112 46.5005C127.442 46.5005 127.722 46.4255 127.953 46.2755C128.187 46.1225 128.364 45.9005 128.484 45.6095L129.15 45.8075C128.97 46.2395 128.706 46.5695 128.358 46.7975C128.01 47.0225 127.595 47.135 127.112 47.135ZM132.725 47C132.452 47.057 132.182 47.0795 131.915 47.0675C131.651 47.0555 131.414 46.9985 131.204 46.8965C130.997 46.7945 130.84 46.6355 130.732 46.4195C130.645 46.2395 130.597 46.058 130.588 45.875C130.582 45.689 130.579 45.4775 130.579 45.2405V40.79H131.236V45.2135C131.236 45.4175 131.237 45.5885 131.24 45.7265C131.246 45.8615 131.278 45.9815 131.335 46.0865C131.443 46.2875 131.614 46.4075 131.848 46.4465C132.085 46.4855 132.377 46.4765 132.725 46.4195V47ZM129.539 42.707V42.14H132.725V42.707H129.539ZM135.536 47.135C135.053 47.135 134.641 47.0255 134.299 46.8065C133.957 46.5875 133.694 46.2845 133.511 45.8975C133.328 45.5105 133.237 45.0665 133.237 44.5655C133.237 44.0555 133.33 43.6085 133.516 43.2245C133.702 42.8405 133.966 42.542 134.308 42.329C134.653 42.113 135.062 42.005 135.536 42.005C136.022 42.005 136.436 42.1145 136.778 42.3335C137.123 42.5495 137.386 42.851 137.566 43.238C137.749 43.622 137.84 44.0645 137.84 44.5655C137.84 45.0755 137.749 45.524 137.566 45.911C137.383 46.295 137.119 46.595 136.774 46.811C136.429 47.027 136.016 47.135 135.536 47.135ZM135.536 46.5005C136.076 46.5005 136.478 46.322 136.742 45.965C137.006 45.605 137.138 45.1385 137.138 44.5655C137.138 43.9775 137.005 43.5095 136.738 43.1615C136.474 42.8135 136.073 42.6395 135.536 42.6395C135.173 42.6395 134.873 42.722 134.636 42.887C134.402 43.049 134.227 43.2755 134.11 43.5665C133.996 43.8545 133.939 44.1875 133.939 44.5655C133.939 45.1505 134.074 45.62 134.344 45.974C134.614 46.325 135.011 46.5005 135.536 46.5005ZM138.833 47V42.14H139.427V43.31L139.31 43.157C139.364 43.013 139.435 42.881 139.522 42.761C139.609 42.638 139.703 42.5375 139.805 42.4595C139.931 42.3485 140.078 42.2645 140.246 42.2075C140.414 42.1475 140.584 42.113 140.755 42.104C140.926 42.092 141.082 42.104 141.223 42.14V42.761C141.046 42.716 140.852 42.7055 140.642 42.7295C140.432 42.7535 140.239 42.8375 140.062 42.9815C139.9 43.1075 139.778 43.259 139.697 43.436C139.616 43.61 139.562 43.796 139.535 43.994C139.508 44.189 139.495 44.3825 139.495 44.5745V47H138.833ZM142.708 49.16L143.648 46.6085L143.662 47.3645L141.533 42.14H142.235L143.981 46.5095H143.693L145.304 42.14H145.979L143.369 49.16H142.708ZM146.166 47V46.2305H146.936V47H146.166Z" fill="white"/>
</svg>
