<svg viewBox="0 0 48 48" xmlns="http://www.w3.org/2000/svg"><g fill="none" stroke="#000" stroke-linejoin="round"><rect height="18.5" rx="4" width="18.5" x="24" y="5.5"/><rect height="18.5" rx="4" width="18.5" x="5.5" y="24"/><rect height="18.5" rx="4" width="18.5" x="24" y="24"/><rect height="18.5" rx="4" width="18.5" x="5.5" y="5.5"/><g stroke-linecap="round"><path d="m16.805 38.25-.001-10-5.366 6.717h6.625"/><path d="m29.9375 16.4375a3.3125 3.3125 0 0 0 6.625 0v-3.375a3.3125 3.3125 0 0 0 -6.625 0z"/><path d="m11.4375 13.0625a3.3125 3.3125 0 0 1 6.625 0 3.0905 3.0905 0 0 1 -.97 2.3423c-1.34 1.176-5.6548 4.3452-5.6548 4.3452h6.625"/><path d="m32.4375 33.25a2.5 2.5 0 0 0 -2.5 2.5 2.5 2.5 0 0 0 2.5 2.5h1.625a2.5 2.5 0 0 0 2.5-2.5 2.5 2.5 0 0 0 -2.5-2.5"/><path d="m34.0625 33.25a2.5 2.5 0 0 0 2.5-2.5 2.5 2.5 0 0 0 -2.5-2.5h-1.625a2.5 2.5 0 0 0 -2.5 2.5 2.5 2.5 0 0 0 2.5 2.5"/><path d="m32.4375 33.25h1.625"/></g></g></svg>